{
classes = (
{
automatic = 1;
code = "A Aacute Abreve Acircumflex Adieresis Agrave Amacron Aogonek Aring Atilde AE B C Cacute Ccaron Ccedilla D Eth E Eacute Ecircumflex Edieresis Egrave Emacron Eogonek F G Gcedilla H I IJ Iacute Icircumflex Idieresis Igrave Imacron Iogonek Itilde J Jcircumflex K L Ldotaccent Lslash M N Nacute Ntilde O Oacute Ocircumflex Odieresis Ograve Oslash Otilde OE P Thorn Q R Racute Rcaron Rcommaaccent S Sacute Scaron T U Uacute Ucircumflex Udieresis Ugrave V W X Y Yacute Ydieresis Z Zacute Zcaron Zdotaccent uni0200 uni0202 uni0204 uni0206 uni0208 uni020A uni020C uni020E uni0210 uni0212 uni0214 uni0216 uni0218 uni021A Omega";
name = Uppercase;
}
);
copyright = "Copyright (c) 2011 by vernon adams. All rights reserved.";
customParameters = (
{
name = macintoshFONDFamilyID;
value = 128;
},
{
name = macintoshFONDName;
value = Muli;
},
{
name = openTypeHeadLowestRecPPEM;
value = 9;
},
{
name = openTypeNameCompatibleFullName;
value = "Muli Bold";
},
{
name = openTypeNameDescription;
value = "Copyright (c) 2011 by vernon adams. All rights reserved.";
},
{
name = openTypeOS2FamilyClass;
value = (
    8,
    5
);
},
{
name = openTypeOS2StrikeoutPosition;
value = 512;
},
{
name = openTypeOS2StrikeoutSize;
value = 102;
},
{
name = openTypeOS2SubscriptXOffset;
value = 0;
},
{
name = openTypeOS2SubscriptXSize;
value = 6015;
},
{
name = openTypeOS2SubscriptYOffset;
value = 1188;
},
{
name = openTypeOS2SubscriptYSize;
value = 5583;
},
{
name = openTypeOS2SuperscriptXOffset;
value = 0;
},
{
name = openTypeOS2SuperscriptXSize;
value = 6015;
},
{
name = openTypeOS2SuperscriptYOffset;
value = 4098;
},
{
name = openTypeOS2SuperscriptYSize;
value = 5583;
},
{
name = openTypeOS2Type;
value = (
    3
);
},
{
name = openTypeOS2UnicodeRanges;
value = (
    0,
    1,
    2
);
},
{
name = openTypeOS2VendorID;
value = newt;
},
{
name = postscriptDefaultWidthX;
value = 500;
},
{
name = postscriptFontName;
value = "Muli-Bold";
},
{
name = postscriptForceBold;
value = 1;

glyphs = (
{
glyphname = A;
lastChange = "2013-02-25 21:23:55 -0800";
layers = (
{
anchors = (
{
name = bot;
position = "{731, 0}";
},
{
name = ogonek;
position = "{1316, 10}";
},
{
name = top;
position = "{731, 1456}";
}
);
layerId = "B8795E5A-CEF4-4AEB-A078-6E69DA5AAEE4";
name = Bold;
paths = (
{
closed = 1;
nodes = (
"609 1456 LINE",
"8 0 LINE",
"273 0 LINE",
"414 364 LINE",
"1038 364 LINE",
"1182 0 LINE",
"1454 0 LINE",
"848 1456 LINE"
);
},
{
closed = 1;
nodes = (
"946 586 LINE",
"498 586 LINE",
"724 1179 LINE"
);
}
);
width = 1462;
}
);
unicode = 0041;
},
{
glyphname = AE;
lastChange = "2013-02-25 21:23:55 -0800";
layers = (
{
anchors = (
{
name = top;
position = "{1125, 0}";
}
);
layerId = "B8795E5A-CEF4-4AEB-A078-6E69DA5AAEE4";
name = Bold;
paths = (
{
closed = 1;
nodes = (
"986 1456 LINE",
"8 0 LINE",
"272 0 LINE",
"510 364 LINE",
"1134 364 LINE",
"1181 0 LINE",
"2144 0 LINE",
"2114 207 LINE",
"1422 207 LINE",
"1357 641 LINE",
"1983 641 LINE",
"1953 849 LINE",
"1326 849 LINE",
"1266 1249 LINE",
"1930 1249 LINE",
"1900 1456 LINE"
);
},
{
closed = 1;
nodes = (
"1112 556 LINE",
"624 556 LINE",
"1042 1209 LINE",
"1046 1209 LINE"
);
}
);
width = 2250;
}
);
unicode = 00C6;
},
{
glyphname = B;
lastChange = "2013-02-25 21:23:55 -0800";
layers = (
{
anchors = (
{
name = bot;
position = "{716, 0}";
},
{
name = top;
position = "{716, 1456}";
}
);
layerId = "B8795E5A-CEF4-4AEB-A078-6E69DA5AAEE4";
name = Bold;
paths = (
{
closed = 1;
nodes = (
"192 1456 LINE",
"192 0 LINE",
"708 0 LINE SMOOTH",
"1060 0 OFFCURVE",
"1240 196 OFFCURVE",
"1240 414 CURVE SMOOTH",
"1240 588 OFFCURVE",
"1143 720 OFFCURVE",
"969 775 CURVE",
"1096 840 OFFCURVE",
"1173 957 OFFCURVE",
"1173 1088 CURVE SMOOTH",
"1173 1429 OFFCURVE",
"810 1456 OFFCURVE",
"556 1456 CURVE SMOOTH"
);
},
{
closed = 1;
nodes = (
"853 649 OFFCURVE",
"981 597 OFFCURVE",
"981 419 CURVE SMOOTH",
"981 275 OFFCURVE",
"869 207 OFFCURVE",
"665 207 CURVE SMOOTH",
"436 207 LINE",
"436 649 LINE",
"614 649 LINE SMOOTH"
);
},
{
closed = 1;
nodes = (
"777 1249 OFFCURVE",
"916 1220 OFFCURVE",
"916 1062 CURVE SMOOTH",
"916 901 OFFCURVE",
"778 857 OFFCURVE",
"642 857 CURVE SMOOTH",
"434 857 LINE",
"434 1249 LINE",
"596 1249 LINE SMOOTH"
);
}
);
width = 1356;
}
);
unicode = 0042;
},
{
glyphname = C;
lastChange = "2013-02-25 21:23:55 -0800";
layers = (
{
anchors = (
{
name = bot;
position = "{716, 0}";
},
{
name = bottom;
position = "{713, 0}";
},
{
name = top;
position = "{716, 1456}";
}
);
layerId = "B8795E5A-CEF4-4AEB-A078-6E69DA5AAEE4";
name = Bold;
paths = (
{
closed = 1;
nodes = (
"341 1483 OFFCURVE",
"106 1093 OFFCURVE",
"106 710 CURVE SMOOTH",
"106 340 OFFCURVE",
"337 -23 OFFCURVE",
"815 -23 CURVE SMOOTH",
"1019 -23 OFFCURVE",
"1191 33 OFFCURVE",
"1327 140 CURVE",
"1246 339 LINE",
"1118 237 OFFCURVE",
"972 184 OFFCURVE",
"835 184 CURVE SMOOTH",
"515 184 OFFCURVE",
"360 446 OFFCURVE",
"360 713 CURVE SMOOTH",
"360 991 OFFCURVE",
"515 1275 OFFCURVE",
"817 1275 CURVE SMOOTH",
"942 1275 OFFCURVE",
"1069 1228 OFFCURVE",
"1195 1140 CURVE",
"1290 1308 LINE",
"1150 1429 OFFCURVE",
"991 1483 OFFCURVE",
"796 1483 CURVE SMOOTH"
);
}
);
width = 1426;
}
);
unicode = 0043;
},
{
glyphname = D;
lastChange = "2013-02-25 21:23:55 -0800";
layers = (
{
anchors = (
{
name = bot;
position = "{825, 0}";
},
{
name = center;
position = "{783, 0}";
},
{
name = top;
position = "{825, 1456}";
}
);
layerId = "B8795E5A-CEF4-4AEB-A078-6E69DA5AAEE4";
name = Bold;
paths = (
{
closed = 1;
nodes = (
"192 1456 LINE",
"198 0 LINE",
"636 0 LINE SMOOTH",
"1152 0 OFFCURVE",
"1459 279 OFFCURVE",
"1459 723 CURVE SMOOTH",
"1459 1256 OFFCURVE",
"1029 1456 OFFCURVE",
"534 1456 CURVE SMOOTH"
);
},
{
closed = 1;
nodes = (
"983 1249 OFFCURVE",
"1203 1119 OFFCURVE",
"1203 724 CURVE SMOOTH",
"1203 422 OFFCURVE",
"1023 207 OFFCURVE",
"649 207 CURVE SMOOTH",
"438 207 LINE",
"438 1249 LINE",
"557 1249 LINE SMOOTH"
);
}
);
width = 1566;
}
);
unicode = 0044;
},
{
glyphname = Eth;
lastChange = "2013-02-25 21:23:55 -0800";
layers = (
{
layerId = "B8795E5A-CEF4-4AEB-A078-6E69DA5AAEE4";
name = Bold;
paths = (
{
closed = 1;
nodes = (
"161 1443 LINE",
"161 806 LINE",
"-22 806 LINE",
"-22 611 LINE",
"163 611 LINE",
"163 0 LINE",
"597 0 LINE SMOOTH",
"1110 0 OFFCURVE",
"1413 277 OFFCURVE",
"1413 717 CURVE SMOOTH",
"1413 1245 OFFCURVE",
"989 1443 OFFCURVE",
"498 1443 CURVE SMOOTH"
);
},
{
closed = 1;
nodes = (
"943 1238 OFFCURVE",
"1159 1108 OFFCURVE",
"1159 718 CURVE SMOOTH",
"1159 419 OFFCURVE",
"984 205 OFFCURVE",
"610 205 CURVE SMOOTH",
"405 205 LINE",
"405 611 LINE",
"595 611 LINE",
"595 806 LINE",
"402 806 LINE",
"402 1238 LINE",
"519 1238 LINE SMOOTH"
);
}
);
width = 1520;
}
);
unicode = 00D0;
},
{
glyphname = E;
lastChange = "2013-02-25 21:23:55 -0800";
layers = (
{
anchors = (
{
name = bot;
position = "{661, 0}";
},
{
name = bottom;
position = "{619, 0}";
},
{
name = ogonek;
position = "{1113, 10}";
},
{
name = top;
position = "{661, 1456}";
}
);
layerId = "B8795E5A-CEF4-4AEB-A078-6E69DA5AAEE4";
name = Bold;
paths = (
{
closed = 1;
nodes = (
"192 1456 LINE",
"192 0 LINE",
"1131 0 LINE",
"1131 207 LINE",
"436 207 LINE",
"436 641 LINE",
"1065 641 LINE",
"1065 849 LINE",
"434 849 LINE",
"434 1249 LINE",
"1102 1249 LINE",
"1102 1456 LINE"
);
}
);
width = 1237;
}
);
unicode = 0045;
},
{
glyphname = F;
lastChange = "2013-02-25 21:23:55 -0800";
layers = (
{
anchors = (
{
name = bot;
position = "{635, 0}";
},
{
name = top;
position = "{635, 1456}";
}
);
layerId = "B8795E5A-CEF4-4AEB-A078-6E69DA5AAEE4";
name = Bold;
paths = (
{
closed = 1;
nodes = (
"192 1456 LINE",
"192 0 LINE",
"435 0 LINE",
"435 636 LINE",
"1046 636 LINE",
"1046 844 LINE",
"435 844 LINE",
"435 1249 LINE",
"1079 1249 LINE",
"1079 1456 LINE"
);
}
);
width = 1159;
}
);
unicode = 0046;
},
{
glyphname = G;
lastChange = "2013-02-25 21:23:55 -0800";
layers = (
{
anchors = (
{
name = bot;
position = "{739, 0}";
},
{
name = bottom;
position = "{776, 0}";
},
{
name = top;
position = "{739, 1456}";
}
);
layerId = "B8795E5A-CEF4-4AEB-A078-6E69DA5AAEE4";
name = Bold;
paths = (
{
closed = 1;
nodes = (
"388 1483 OFFCURVE",
"106 1129 OFFCURVE",
"106 704 CURVE SMOOTH",
"106 267 OFFCURVE",
"362 -23 OFFCURVE",
"850 -23 CURVE SMOOTH",
"1018 -23 OFFCURVE",
"1192 11 OFFCURVE",
"1372 92 CURVE",
"1368 788 LINE",
"778 788 LINE",
"778 581 LINE",
"1121 581 LINE",
"1121 525 OFFCURVE",
"1121 457 OFFCURVE",
"1122 405 CURVE SMOOTH",
"1122 345 OFFCURVE",
"1123 288 OFFCURVE",
"1123 227 CURVE",
"1040 201 OFFCURVE",
"947 184 OFFCURVE",
"861 184 CURVE SMOOTH",
"522 184 OFFCURVE",
"358 404 OFFCURVE",
"358 715 CURVE SMOOTH",
"358 1004 OFFCURVE",
"532 1275 OFFCURVE",
"876 1275 CURVE SMOOTH",
"991 1275 OFFCURVE",
"1128 1243 OFFCURVE",
"1261 1168 CURVE",
"1358 1329 LINE",
"1209 1435 OFFCURVE",
"1049 1483 OFFCURVE",
"874 1483 CURVE SMOOTH"
);
}
);
width = 1552;
}
);
unicode = 0047;
},
{
glyphname = H;
lastChange = "2013-02-25 21:23:55 -0800";
layers = (
{
anchors = (
{
name = bot;
position = "{777, 0}";
},
{
name = center;
position = "{777, 0}";
},
{
name = top;
position = "{777, 1456}";
}
);
layerId = "B8795E5A-CEF4-4AEB-A078-6E69DA5AAEE4";
name = Bold;
paths = (
{
closed = 1;
nodes = (
"1119 1456 LINE",
"1119 851 LINE",
"433 851 LINE",
"433 1456 LINE",
"192 1456 LINE",
"192 0 LINE",
"437 0 LINE",
"437 643 LINE",
"1123 643 LINE",
"1123 0 LINE",
"1362 0 LINE",
"1362 1456 LINE"
);
}
);
width = 1554;
}
);
unicode = 0048;
},
{
glyphname = I;
lastChange = "2013-02-25 21:23:55 -0800";
layers = (
{
anchors = (
{
name = bot;
position = "{295, 0}";
},
{
name = ogonek;
position = "{532, 10}";
},
{
name = top;
position = "{295, 1456}";
}
);
layerId = "B8795E5A-CEF4-4AEB-A078-6E69DA5AAEE4";
name = Bold;
paths = (
{
closed = 1;
nodes = (
"175 1456 LINE",
"175 0 LINE",
"415 0 LINE",
"415 1456 LINE"
);
}
);
width = 591;
}
);
unicode = 0049;
},
{
glyphname = J;
lastChange = "2013-02-25 21:23:55 -0800";
layers = (
{
anchors = (
{
name = bot;
position = "{378, 0}";
},
{
name = top;
position = "{378, 1456}";
}
);
layerId = "B8795E5A-CEF4-4AEB-A078-6E69DA5AAEE4";
name = Bold;
paths = (
{
closed = 1;
nodes = (
"523 1456 LINE",
"523 112 LINE SMOOTH",
"523 -35 OFFCURVE",
"481 -127 OFFCURVE",
"331 -127 CURVE SMOOTH",
"273 -127 OFFCURVE",
"200 -114 OFFCURVE",
"108 -85 CURVE",
"66 -270 LINE",
"180 -311 OFFCURVE",
"284 -331 OFFCURVE",
"373 -331 CURVE SMOOTH",
"624 -331 OFFCURVE",
"771 -174 OFFCURVE",
"771 121 CURVE SMOOTH",
"771 1456 LINE"
);
}
);
width = 966;
}
);
unicode = 004A;
},
{
glyphname = K;
lastChange = "2013-02-25 21:23:55 -0800";
layers = (
{
anchors = (
{
name = bot;
position = "{771, 0}";
},
{
name = bottom;
position = "{670, 0}";
},
{
name = top;
position = "{771, 1456}";
}
);
layerId = "B8795E5A-CEF4-4AEB-A078-6E69DA5AAEE4";
name = Bold;
paths = (
{
closed = 1;
nodes = (
"999 1456 LINE",
"615 1046 OFFCURVE",
"526 951 OFFCURVE",
"434 855 CURVE",
"434 1456 LINE",
"192 1456 LINE",
"192 0 LINE",
"436 0 LINE",
"436 639 LINE",
"1037 0 LINE",
"1350 0 LINE",
"616 752 LINE",
"1301 1456 LINE"
);
}
);
width = 1339;
}
);
unicode = 004B;
},
{
glyphname = L;
lastChange = "2013-02-25 21:23:55 -0800";
layers = (
{
anchors = (
{
name = bot;
position = "{650, 0}";
},
{
name = bottom;
position = "{580, 0}";
},
{
name = top;
position = "{650, 1456}";
}
);
layerId = "B8795E5A-CEF4-4AEB-A078-6E69DA5AAEE4";
name = Bold;
paths = (
{
closed = 1;
nodes = (
"192 1456 LINE",
"192 0 LINE",
"1108 0 LINE",
"1108 207 LINE",
"434 207 LINE",
"434 1456 LINE"
);
}
);
width = 1159;
}
);
unicode = 004C;
},
{
glyphname = Lslash;
lastChange = "2013-02-25 21:23:55 -0800";
layers = (
{
layerId = "B8795E5A-CEF4-4AEB-A078-6E69DA5AAEE4";
name = Bold;
paths = (
{
closed = 1;
nodes = (
"163 1443 LINE",
"163 761 LINE",
"39 643 LINE",
"39 431 LINE",
"166 548 LINE",
"166 0 LINE",
"1074 0 LINE",
"1074 205 LINE",
"409 205 LINE",
"409 735 LINE",
"527 844 LINE",
"527 1086 LINE",
"407 958 LINE",
"407 1443 LINE"
);
}
);
width = 1120;
}
);
unicode = 0141;
},
{
glyphname = M;
lastChange = "2013-02-25 21:23:55 -0800";
layers = (
{
anchors = (
{
name = bot;
position = "{995, 0}";
},
{
name = top;
position = "{995, 1456}";
}
);
layerId = "B8795E5A-CEF4-4AEB-A078-6E69DA5AAEE4";
name = Bold;
paths = (
{
closed = 1;
nodes = (
"1505 1456 LINE",
"998 323 LINE",
"486 1456 LINE",
"192 1456 LINE",
"192 0 LINE",
"425 0 LINE",
"425 1041 LINE",
"514 850 LINE",
"908 0 LINE",
"1086 0 LINE",
"1571 1053 LINE",
"1571 0 LINE",
"1798 0 LINE",
"1798 1456 LINE"
);
}
);
width = 1991;
}
);
unicode = 004D;
},
{
glyphname = N;
lastChange = "2013-02-25 21:23:55 -0800";
layers = (
{
anchors = (
{
name = bot;
position = "{805, 0}";
},
{
name = bottom;
position = "{806, 0}";
},
{
name = top;
position = "{805, 1456}";
}
);
layerId = "B8795E5A-CEF4-4AEB-A078-6E69DA5AAEE4";
name = Bold;
paths = (
{
closed = 1;
nodes = (
"1189 1456 LINE",
"1189 358 LINE",
"1069 535 LINE",
"449 1456 LINE",
"192 1456 LINE",
"192 0 LINE",
"416 0 LINE",
"416 1098 LINE",
"1161 0 LINE",
"1419 0 LINE",
"1419 1456 LINE"
);
}
);
width = 1612;
}
);
unicode = 004E;
},
{
glyphname = O;
lastChange = "2013-02-25 21:23:55 -0800";
layers = (
{
anchors = (
{
name = bot;
position = "{831, 0}";
},
{
name = top;
position = "{831, 1456}";
}
);
layerId = "B8795E5A-CEF4-4AEB-A078-6E69DA5AAEE4";
name = Bold;
paths = (
{
closed = 1;
nodes = (
"379 1483 OFFCURVE",
"106 1166 OFFCURVE",
"106 731 CURVE SMOOTH",
"106 271 OFFCURVE",
"380 -23 OFFCURVE",
"835 -23 CURVE SMOOTH",
"1289 -23 OFFCURVE",
"1556 283 OFFCURVE",
"1556 722 CURVE SMOOTH",
"1556 1182 OFFCURVE",
"1280 1483 OFFCURVE",
"838 1483 CURVE SMOOTH"
);
},
{
closed = 1;
nodes = (
"1139 1276 OFFCURVE",
"1293 1040 OFFCURVE",
"1293 733 CURVE SMOOTH",
"1293 420 OFFCURVE",
"1139 184 OFFCURVE",
"830 184 CURVE SMOOTH",
"521 184 OFFCURVE",
"367 421 OFFCURVE",
"367 725 CURVE SMOOTH",
"367 1019 OFFCURVE",
"529 1276 OFFCURVE",
"834 1276 CURVE SMOOTH"
);
}
);
width = 1662;
}
);
unicode = 004F;
},
{
glyphname = Oslash;
lastChange = "2013-02-25 21:23:55 -0800";
layers = (
{
anchors = (
{
name = top;
position = "{832, 0}";
}
);
components = (
{
name = O;
transform = "{1, 0, 0, 1, 0, 0}";
}
);
layerId = "B8795E5A-CEF4-4AEB-A078-6E69DA5AAEE4";
name = Bold;
paths = (
{
closed = 1;
nodes = (
"343 -66 LINE",
"479 -134 LINE",
"1336 1493 LINE",
"1200 1561 LINE"
);
}
);
width = 1663;
}
);
unicode = 00D8;
},
{
glyphname = OE;
lastChange = "2013-02-25 21:23:55 -0800";
layers = (
{
anchors = (
{
name = top;
position = "{1054, 0}";
}
);
layerId = "B8795E5A-CEF4-4AEB-A078-6E69DA5AAEE4";
name = Bold;
paths = (
{
closed = 1;
nodes = (
"390 1482 OFFCURVE",
"106 1134 OFFCURVE",
"106 731 CURVE SMOOTH",
"106 300 OFFCURVE",
"378 -24 OFFCURVE",
"720 -24 CURVE SMOOTH",
"837 -24 OFFCURVE",
"966 0 OFFCURVE",
"1091 54 CURVE",
"1091 0 LINE",
"1951 0 LINE",
"1951 207 LINE",
"1335 207 LINE",
"1335 641 LINE",
"1885 641 LINE",
"1885 849 LINE",
"1333 849 LINE",
"1333 1249 LINE",
"1922 1249 LINE",
"1922 1456 LINE",
"1091 1456 LINE",
"1091 1402 LINE",
"971 1457 OFFCURVE",
"844 1482 OFFCURVE",
"727 1482 CURVE SMOOTH"
);
},
{
closed = 1;
nodes = (
"869 1275 OFFCURVE",
"982 1253 OFFCURVE",
"1091 1201 CURVE",
"1091 238 LINE",
"983 189 OFFCURVE",
"872 167 OFFCURVE",
"771 167 CURVE SMOOTH",
"546 167 OFFCURVE",
"367 416 OFFCURVE",
"367 725 CURVE SMOOTH",
"367 1019 OFFCURVE",
"547 1275 OFFCURVE",
"766 1275 CURVE SMOOTH"
);
}
);
width = 2107;
}
);
unicode = 0152;
},
{
glyphname = P;
lastChange = "2013-02-25 21:23:55 -0800";
layers = (
{
anchors = (
{
name = bot;
position = "{710, 0}";
},
{
name = top;
position = "{710, 1456}";
}
);
layerId = "B8795E5A-CEF4-4AEB-A078-6E69DA5AAEE4";
name = Bold;
paths = (
{
closed = 1;
nodes = (
"192 1456 LINE",
"192 0 LINE",
"440 0 LINE",
"434 560 LINE",
"610 560 LINE SMOOTH",
"933 560 OFFCURVE",
"1229 692 OFFCURVE",
"1229 1006 CURVE SMOOTH",
"1229 1381 OFFCURVE",
"901 1456 OFFCURVE",
"557 1456 CURVE SMOOTH"
);
},
{
closed = 1;
nodes = (
"815 1249 OFFCURVE",
"966 1204 OFFCURVE",
"966 1006 CURVE SMOOTH",
"966 841 OFFCURVE",
"830 769 OFFCURVE",
"644 769 CURVE SMOOTH",
"434 769 LINE",
"434 1249 LINE",
"599 1249 LINE SMOOTH"
);
}
);
width = 1306;
}
);
unicode = 0050;
},
{
glyphname = Thorn;
lastChange = "2013-02-25 21:23:55 -0800";
layers = (
{
layerId = "B8795E5A-CEF4-4AEB-A078-6E69DA5AAEE4";
name = Bold;
paths = (
{
closed = 1;
nodes = (
"192 1443 LINE",
"192 0 LINE",
"431 0 LINE",
"431 481 LINE",
"606 481 LINE SMOOTH",
"924 481 OFFCURVE",
"1218 612 OFFCURVE",
"1218 924 CURVE SMOOTH",
"1218 1295 OFFCURVE",
"895 1370 OFFCURVE",
"552 1370 CURVE SMOOTH",
"433 1370 LINE",
"433 1443 LINE"
);
},
{
closed = 1;
nodes = (
"808 1165 OFFCURVE",
"958 1120 OFFCURVE",
"958 924 CURVE SMOOTH",
"958 759 OFFCURVE",
"823 688 OFFCURVE",
"639 688 CURVE SMOOTH",
"431 688 LINE",
"431 1165 LINE",
"594 1165 LINE SMOOTH"
);
}
);
width = 1296;
}
);
unicode = 00DE;
},
{
glyphname = Q;
lastChange = "2013-02-25 21:23:55 -0800";
layers = (
{
anchors = (
{
name = bot;
position = "{828, 0}";
},
{
name = top;
position = "{828, 1456}";
}
);
layerId = "B8795E5A-CEF4-4AEB-A078-6E69DA5AAEE4";
name = Bold;
paths = (
{
closed = 1;
nodes = (
"388 1483 OFFCURVE",
"106 1182 OFFCURVE",
"106 747 CURVE SMOOTH",
"106 290 OFFCURVE",
"387 -18 OFFCURVE",
"832 -18 CURVE SMOOTH",
"855 -18 OFFCURVE",
"883 -13 OFFCURVE",
"923 -8 CURVE",
"1050 -260 OFFCURVE",
"1254 -443 OFFCURVE",
"1254 -443 CURVE",
"1389 -298 LINE",
"1389 -298 OFFCURVE",
"1217 -134 OFFCURVE",
"1136 35 CURVE",
"1412 144 OFFCURVE",
"1551 426 OFFCURVE",
"1551 735 CURVE SMOOTH",
"1551 1181 OFFCURVE",
"1275 1483 OFFCURVE",
"833 1483 CURVE SMOOTH"
);
},
{
closed = 1;
nodes = (
"1137 1275 OFFCURVE",
"1287 1038 OFFCURVE",
"1287 733 CURVE SMOOTH",
"1287 420 OFFCURVE",
"1134 184 OFFCURVE",
"825 184 CURVE SMOOTH",
"516 184 OFFCURVE",
"362 423 OFFCURVE",
"362 723 CURVE SMOOTH",
"362 1017 OFFCURVE",
"521 1275 OFFCURVE",
"829 1275 CURVE SMOOTH"
);
}
);
width = 1657;
}
);
unicode = 0051;
},
{
glyphname = R;
lastChange = "2013-02-25 21:23:55 -0800";
layers = (
{
anchors = (
{
name = bot;
position = "{759, 0}";
},
{
name = bottom;
position = "{696, 0}";
},
{
name = top;
position = "{759, 1456}";
}
);
layerId = "B8795E5A-CEF4-4AEB-A078-6E69DA5AAEE4";
name = Bold;
paths = (
{
closed = 1;
nodes = (
"192 1456 LINE",
"192 0 LINE",
"438 0 LINE",
"438 623 LINE",
"657 623 LINE SMOOTH",
"795 623 OFFCURVE",
"846 570 OFFCURVE",
"902 422 CURVE SMOOTH",
"1058 0 LINE",
"1326 0 LINE",
"1225 235 LINE",
"1225 235 OFFCURVE",
"1072 634 OFFCURVE",
"990 701 CURVE SMOOTH",
"987 704 OFFCURVE",
"983 706 OFFCURVE",
"980 709 CURVE",
"1131 779 OFFCURVE",
"1224 901 OFFCURVE",
"1224 1058 CURVE SMOOTH",
"1224 1453 OFFCURVE",
"815 1456 OFFCURVE",
"573 1456 CURVE SMOOTH"
);
},
{
closed = 1;
nodes = (
"835 1249 OFFCURVE",
"968 1211 OFFCURVE",
"968 1045 CURVE SMOOTH",
"968 874 OFFCURVE",
"803 828 OFFCURVE",
"650 828 CURVE SMOOTH",
"435 828 LINE",
"435 1249 LINE",
"664 1249 LINE SMOOTH"
);
}
);
width = 1391;
}
);
unicode = 0052;
},
{
glyphname = S;
lastChange = "2013-02-25 21:23:55 -0800";
layers = (
{
anchors = (
{
name = bot;
position = "{620, 0}";
},
{
name = bottom;
position = "{615, 0}";
},
{
name = top;
position = "{620, 1456}";
}
);
layerId = "B8795E5A-CEF4-4AEB-A078-6E69DA5AAEE4";
name = Bold;
paths = (
{
closed = 1;
nodes = (
"376 1483 OFFCURVE",
"105 1342 OFFCURVE",
"105 1080 CURVE SMOOTH",
"105 831 OFFCURVE",
"348 730 OFFCURVE",
"557 646 CURVE SMOOTH",
"712 583 OFFCURVE",
"881 511 OFFCURVE",
"881 393 CURVE SMOOTH",
"881 254 OFFCURVE",
"750 184 OFFCURVE",
"567 184 CURVE SMOOTH",
"443 184 OFFCURVE",
"293 245 OFFCURVE",
"205 315 CURVE",
"104 144 LINE",
"200 49 OFFCURVE",
"375 -23 OFFCURVE",
"581 -23 CURVE SMOOTH",
"848 -23 OFFCURVE",
"1138 92 OFFCURVE",
"1138 389 CURVE SMOOTH",
"1138 640 OFFCURVE",
"887 759 OFFCURVE",
"678 845 CURVE SMOOTH",
"518 911 OFFCURVE",
"363 964 OFFCURVE",
"363 1088 CURVE SMOOTH",
"363 1224 OFFCURVE",
"517 1275 OFFCURVE",
"649 1275 CURVE SMOOTH",
"759 1275 OFFCURVE",
"894 1250 OFFCURVE",
"990 1158 CURVE",
"1120 1309 LINE",
"1011 1444 OFFCURVE",
"814 1483 OFFCURVE",
"645 1483 CURVE SMOOTH"
);
}
);
width = 1230;
}
);
unicode = 0053;
},
{
glyphname = T;
lastChange = "2013-02-25 21:23:55 -0800";
layers = (
{
anchors = (
{
name = bot;
position = "{587, 0}";
},
{
name = bottom;
position = "{587, 0}";
},
{
name = center;
position = "{587, 0}";
},
{
name = top;
position = "{587, 1456}";
}
);
layerId = "B8795E5A-CEF4-4AEB-A078-6E69DA5AAEE4";
name = Bold;
paths = (
{
closed = 1;
nodes = (
"11 1456 LINE",
"11 1249 LINE",
"463 1249 LINE",
"463 0 LINE",
"704 0 LINE",
"704 1249 LINE",
"1163 1249 LINE",
"1163 1456 LINE"
);
}
);
width = 1174;
}
);
unicode = 0054;
},
{
glyphname = U;
lastChange = "2013-02-25 21:23:55 -0800";
layers = (
{
anchors = (
{
name = bot;
position = "{753, 0}";
},
{
name = ogonek;
position = "{1355, 10}";
},
{
name = top;
position = "{753, 1456}";
}
);
layerId = "B8795E5A-CEF4-4AEB-A078-6E69DA5AAEE4";
name = Bold;
paths = (
{
closed = 1;
nodes = (
"1092 1456 LINE",
"1092 553 LINE SMOOTH",
"1092 259 OFFCURVE",
"956 184 OFFCURVE",
"753 184 CURVE SMOOTH",
"550 184 OFFCURVE",
"414 259 OFFCURVE",
"414 553 CURVE SMOOTH",
"414 1456 LINE",
"165 1456 LINE",
"165 570 LINE SMOOTH",
"165 240 OFFCURVE",
"280 -23 OFFCURVE",
"753 -23 CURVE SMOOTH",
"1226 -23 OFFCURVE",
"1341 240 OFFCURVE",
"1341 570 CURVE SMOOTH",
"1341 1456 LINE"
);
}
);
width = 1506;
}
);
unicode = 0055;
},
{
glyphname = V;
lastChange = "2013-02-25 21:23:55 -0800";
layers = (
{
anchors = (
{
name = bot;
position = "{689, 0}";
},
{
name = top;
position = "{689, 1456}";
}
);
layerId = "B8795E5A-CEF4-4AEB-A078-6E69DA5AAEE4";
name = Bold;
paths = (
{
closed = 1;
nodes = (
"1119 1456 LINE",
"791 571 LINE",
"695 311 LINE",
"278 1456 LINE",
"6 1456 LINE",
"569 0 LINE",
"811 0 LINE",
"1372 1456 LINE"
);
}
);
width = 1378;
}
);
unicode = 0056;
},
{
glyphname = W;
lastChange = "2013-02-25 21:23:55 -0800";
layers = (
{
anchors = (
{
name = bot;
position = "{1051, 0}";
},
{
name = top;
position = "{1051, 1456}";
}
);
layerId = "B8795E5A-CEF4-4AEB-A078-6E69DA5AAEE4";
name = Bold;
paths = (
{
closed = 1;
nodes = (
"1834 1456 LINE",
"1610 597 LINE",
"1535 308 LINE",
"1174 1456 LINE",
"941 1456 LINE",
"678 605 LINE",
"588 312 LINE",
"508 606 LINE",
"276 1456 LINE",
"14 1456 LINE",
"436 0 LINE",
"703 0 LINE",
"1051 1142 LINE",
"1393 0 LINE",
"1667 0 LINE",
"2088 1456 LINE"
);
}
);
width = 2103;
}
);
unicode = 0057;
},
{
glyphname = X;
lastChange = "2013-02-25 21:23:55 -0800";
layers = (
{
anchors = (
{
name = bot;
position = "{688, 0}";
},
{
name = top;
position = "{688, 1456}";
}
);
layerId = "B8795E5A-CEF4-4AEB-A078-6E69DA5AAEE4";
name = Bold;
paths = (
{
closed = 1;
nodes = (
"1075 1456 LINE",
"9 0 LINE",
"297 0 LINE",
"1355 1456 LINE"
);
},
{
closed = 1;
nodes = (
"43 1456 LINE",
"1068 0 LINE",
"1367 0 LINE",
"1253 164 OFFCURVE",
"1115 360 OFFCURVE",
"341 1456 CURVE"
);
}
);
width = 1376;
}
);
unicode = 0058;
},
{
glyphname = Y;
lastChange = "2013-02-25 21:23:55 -0800";
layers = (
{
anchors = (
{
name = bot;
position = "{651, 0}";
},
{
name = top;
position = "{651, 1456}";
}
);
layerId = "B8795E5A-CEF4-4AEB-A078-6E69DA5AAEE4";
name = Bold;
paths = (
{
closed = 1;
nodes = (
"1034 1456 LINE",
"969 1343 OFFCURVE",
"649 797 OFFCURVE",
"649 797 CURVE",
"263 1456 LINE",
"-11 1456 LINE",
"524 582 LINE",
"524 0 LINE",
"765 0 LINE",
"765 584 LINE",
"1314 1456 LINE"
);
}
);
width = 1303;
}
);
unicode = 0059;
},
{
glyphname = Z;
lastChange = "2013-02-25 21:23:55 -0800";
layers = (
{
anchors = (
{
name = bot;
position = "{590, 0}";
},
{
name = top;
position = "{590, 1456}";
}
);
layerId = "B8795E5A-CEF4-4AEB-A078-6E69DA5AAEE4";
name = Bold;
paths = (
{
closed = 1;
nodes = (
"55 1456 LINE",
"55 1249 LINE",
"820 1249 LINE",
"28 130 LINE",
"28 0 LINE",
"1151 0 LINE",
"1151 207 LINE",
"356 207 LINE",
"1153 1330 LINE",
"1153 1456 LINE"
);
}
);
width = 1222;
}
);
unicode = 005A;
},
{
glyphname = a;
lastChange = "2013-02-25 21:23:55 -0800";
layers = (
{
anchors = (
{
name = bot;
position = "{617, 0}";
},
{
name = ogonek;
position = "{1185, 10}";
},
{
name = top;
position = "{624, 1026}";
}
);
layerId = "B8795E5A-CEF4-4AEB-A078-6E69DA5AAEE4";
name = Bold;
paths = (
{
closed = 1;
nodes = (
"255 1052 OFFCURVE",
"100 781 OFFCURVE",
"100 504 CURVE SMOOTH",
"100 254 OFFCURVE",
"254 -23 OFFCURVE",
"593 -23 CURVE SMOOTH",
"706 -23 OFFCURVE",
"837 32 OFFCURVE",
"898 155 CURVE",
"898 0 LINE",
"1134 0 LINE",
"1134 1026 LINE",
"903 1026 LINE",
"903 879 LINE",
"847 989 OFFCURVE",
"721 1051 OFFCURVE",
"593 1052 CURVE SMOOTH"
);
},
{
closed = 1;
nodes = (
"822 861 OFFCURVE",
"911 717 OFFCURVE",
"911 515 CURVE SMOOTH",
"911 318 OFFCURVE",
"828 168 OFFCURVE",
"624 168 CURVE SMOOTH",
"420 168 OFFCURVE",
"335 317 OFFCURVE",
"335 515 CURVE SMOOTH",
"335 717 OFFCURVE",
"426 861 OFFCURVE",
"624 861 CURVE SMOOTH"
);
}
);
width = 1276;
}
);
unicode = 0061;
},
{
glyphname = ae;
lastChange = "2013-02-25 21:23:55 -0800";
layers = (
{
anchors = (
{
name = top;
position = "{904, 0}";
}
);
layerId = "B8795E5A-CEF4-4AEB-A078-6E69DA5AAEE4";
name = Bold;
paths = (
{
closed = 1;
nodes = (
"1059 1052 OFFCURVE",
"943 985 OFFCURVE",
"864 881 CURVE",
"801 1000 OFFCURVE",
"635 1052 OFFCURVE",
"551 1052 CURVE SMOOTH",
"368 1052 OFFCURVE",
"232 1001 OFFCURVE",
"140 920 CURVE",
"208 736 LINE",
"311 830 OFFCURVE",
"428 861 OFFCURVE",
"531 861 CURVE SMOOTH",
"661 861 OFFCURVE",
"725 750 OFFCURVE",
"726 637 CURVE",
"687 637 LINE SMOOTH",
"270 637 OFFCURVE",
"61 567 OFFCURVE",
"61 292 CURVE SMOOTH",
"61 89 OFFCURVE",
"221 -23 OFFCURVE",
"459 -23 CURVE SMOOTH",
"613 -23 OFFCURVE",
"767 52 OFFCURVE",
"840 198 CURVE",
"926 64 OFFCURVE",
"1063 -23 OFFCURVE",
"1244 -23 CURVE SMOOTH",
"1391 -23 OFFCURVE",
"1515 19 OFFCURVE",
"1628 107 CURVE",
"1560 292 LINE",
"1460 210 OFFCURVE",
"1355 168 OFFCURVE",
"1251 168 CURVE SMOOTH",
"1074 168 OFFCURVE",
"963 265 OFFCURVE",
"955 478 CURVE",
"1644 478 LINE",
"1648 494 OFFCURVE",
"1649 512 OFFCURVE",
"1649 523 CURVE SMOOTH",
"1649 818 OFFCURVE",
"1512 1052 OFFCURVE",
"1207 1052 CURVE SMOOTH"
);
},
{
closed = 1;
nodes = (
"723 304 OFFCURVE",
"664 167 OFFCURVE",
"469 167 CURVE SMOOTH",
"374 167 OFFCURVE",
"291 204 OFFCURVE",
"291 302 CURVE SMOOTH",
"291 431 OFFCURVE",
"447 445 OFFCURVE",
"616 447 CURVE SMOOTH",
"726 448 LINE"
);
},
{
closed = 1;
nodes = (
"1330 869 OFFCURVE",
"1425 792 OFFCURVE",
"1443 636 CURVE",
"959 636 LINE",
"989 771 OFFCURVE",
"1076 869 OFFCURVE",
"1219 869 CURVE SMOOTH"
);
}
);
width = 1807;
}
);
unicode = 00E6;
},
{
glyphname = b;
lastChange = "2013-02-25 21:23:55 -0800";
layers = (
{
anchors = (
{
name = _top;
position = "{648, 1026}";
},
{
name = bot;
position = "{648, 0}";
}
);
layerId = "B8795E5A-CEF4-4AEB-A078-6E69DA5AAEE4";
name = Bold;
paths = (
{
closed = 1;
nodes = (
"150 1463 LINE",
"150 272 LINE SMOOTH",
"150 243 OFFCURVE",
"149 215 OFFCURVE",
"142 0 CURVE",
"383 0 LINE",
"385 95 LINE",
"472 -10 OFFCURVE",
"587 -23 OFFCURVE",
"688 -23 CURVE SMOOTH",
"950 -23 OFFCURVE",
"1155 182 OFFCURVE",
"1155 508 CURVE SMOOTH",
"1155 802 OFFCURVE",
"992 1052 OFFCURVE",
"671 1052 CURVE SMOOTH",
"540 1052 OFFCURVE",
"446 1004 OFFCURVE",
"385 952 CURVE",
"385 1463 LINE"
);
},
{
closed = 1;
nodes = (
"825 861 OFFCURVE",
"908 707 OFFCURVE",
"908 515 CURVE SMOOTH",
"908 328 OFFCURVE",
"831 168 OFFCURVE",
"641 168 CURVE SMOOTH",
"451 168 OFFCURVE",
"372 328 OFFCURVE",
"372 515 CURVE SMOOTH",
"372 707 OFFCURVE",
"457 861 OFFCURVE",
"641 861 CURVE SMOOTH"
);
}
);
width = 1255;
}
);
unicode = 0062;
},
{
glyphname = c;
lastChange = "2013-02-25 21:23:55 -0800";
layers = (
{
anchors = (
{
name = bottom;
position = "{628, 8}";
},
{
name = top;
position = "{610, 1026}";
}
);
layerId = "B8795E5A-CEF4-4AEB-A078-6E69DA5AAEE4";
name = Bold;
paths = (
{
closed = 1;
nodes = (
"286 1052 OFFCURVE",
"100 804 OFFCURVE",
"100 506 CURVE SMOOTH",
"100 219 OFFCURVE",
"275 -23 OFFCURVE",
"621 -23 CURVE SMOOTH",
"763 -23 OFFCURVE",
"884 14 OFFCURVE",
"993 91 CURVE",
"924 273 LINE",
"819 204 OFFCURVE",
"724 168 OFFCURVE",
"631 168 CURVE SMOOTH",
"440 168 OFFCURVE",
"345 315 OFFCURVE",
"345 507 CURVE SMOOTH",
"345 704 OFFCURVE",
"454 861 OFFCURVE",
"634 861 CURVE SMOOTH",
"717 861 OFFCURVE",
"809 826 OFFCURVE",
"891 751 CURVE",
"995 909 LINE",
"910 998 OFFCURVE",
"772 1052 OFFCURVE",
"616 1052 CURVE SMOOTH"
);
}
);
width = 1065;
}
);
unicode = 0063;
},
{
glyphname = d;
lastChange = "2013-02-25 21:23:55 -0800";
layers = (
{
anchors = (
{
name = _top;
position = "{606, 1026}";
},
{
name = bot;
position = "{606, 0}";
},
{
name = center;
position = "{628, 0}";
}
);
layerId = "B8795E5A-CEF4-4AEB-A078-6E69DA5AAEE4";
name = Bold;
paths = (
{
closed = 1;
nodes = (
"870 1463 LINE",
"870 952 LINE",
"809 1004 OFFCURVE",
"715 1052 OFFCURVE",
"584 1052 CURVE SMOOTH",
"263 1052 OFFCURVE",
"100 802 OFFCURVE",
"100 508 CURVE SMOOTH",
"100 182 OFFCURVE",
"305 -23 OFFCURVE",
"567 -23 CURVE SMOOTH",
"668 -23 OFFCURVE",
"783 -10 OFFCURVE",
"870 95 CURVE",
"872 0 LINE",
"1113 0 LINE",
"1106 215 OFFCURVE",
"1105 243 OFFCURVE",
"1105 272 CURVE SMOOTH",
"1105 1463 LINE"
);
},
{
closed = 1;
nodes = (
"797 861 OFFCURVE",
"877 707 OFFCURVE",
"877 515 CURVE SMOOTH",
"877 328 OFFCURVE",
"803 168 OFFCURVE",
"613 168 CURVE SMOOTH",
"423 168 OFFCURVE",
"347 328 OFFCURVE",
"347 515 CURVE SMOOTH",
"347 707 OFFCURVE",
"429 861 OFFCURVE",
"613 861 CURVE SMOOTH"
);
}
);
width = 1255;
}
);
unicode = 0064;
},
{
glyphname = eth;
lastChange = "2013-02-25 21:23:55 -0800";
layers = (
{
layerId = "B8795E5A-CEF4-4AEB-A078-6E69DA5AAEE4";
name = Bold;
paths = (
{
closed = 1;
nodes = (
"347 1321 LINE",
"429 1305 OFFCURVE",
"536 1262 OFFCURVE",
"596 1216 CURVE",
"410 1177 LINE",
"438 1044 LINE",
"710 1102 LINE",
"798 1032 OFFCURVE",
"883 821 OFFCURVE",
"883 749 CURVE",
"789 859 OFFCURVE",
"670 904 OFFCURVE",
"547 904 CURVE SMOOTH",
"269 904 OFFCURVE",
"100 731 OFFCURVE",
"100 468 CURVE SMOOTH",
"100 204 OFFCURVE",
"286 -24 OFFCURVE",
"585 -24 CURVE SMOOTH",
"909 -24 OFFCURVE",
"1102 170 OFFCURVE",
"1102 623 CURVE SMOOTH",
"1102 760 OFFCURVE",
"1041 1001 OFFCURVE",
"922 1148 CURVE",
"1103 1182 LINE",
"1075 1315 LINE",
"829 1265 LINE",
"710 1375 OFFCURVE",
"574 1438 OFFCURVE",
"425 1456 CURVE"
);
},
{
closed = 1;
nodes = (
"716 706 OFFCURVE",
"851 611 OFFCURVE",
"851 450 CURVE SMOOTH",
"851 265 OFFCURVE",
"725 168 OFFCURVE",
"601 168 CURVE SMOOTH",
"471 168 OFFCURVE",
"343 260 OFFCURVE",
"343 451 CURVE SMOOTH",
"343 628 OFFCURVE",
"462 706 OFFCURVE",
"588 706 CURVE SMOOTH"
);
}
);
width = 1218;
}
);
unicode = 00F0;
},
{
glyphname = e;
lastChange = "2013-02-25 21:23:55 -0800";
layers = (
{
anchors = (
{
name = bot;
position = "{643, 0}";
},
{
name = ogonek;
position = "{948, 10}";
},
{
name = top;
position = "{614, 1026}";
}
);
layerId = "B8795E5A-CEF4-4AEB-A078-6E69DA5AAEE4";
name = Bold;
paths = (
{
closed = 1;
nodes = (
"288 1052 OFFCURVE",
"100 803 OFFCURVE",
"100 512 CURVE SMOOTH",
"100 197 OFFCURVE",
"306 -23 OFFCURVE",
"652 -23 CURVE SMOOTH",
"811 -23 OFFCURVE",
"944 19 OFFCURVE",
"1066 107 CURVE",
"998 292 LINE",
"889 210 OFFCURVE",
"772 168 OFFCURVE",
"659 168 CURVE SMOOTH",
"476 168 OFFCURVE",
"356 265 OFFCURVE",
"348 478 CURVE",
"1082 478 LINE",
"1086 494 OFFCURVE",
"1087 512 OFFCURVE",
"1087 523 CURVE SMOOTH",
"1087 818 OFFCURVE",
"941 1052 OFFCURVE",
"615 1052 CURVE SMOOTH"
);
},
{
closed = 1;
nodes = (
"753 869 OFFCURVE",
"860 792 OFFCURVE",
"881 636 CURVE",
"352 636 LINE",
"383 771 OFFCURVE",
"479 869 OFFCURVE",
"627 869 CURVE SMOOTH"
);
}
);
width = 1187;
}
);
unicode = 0065;
},
{
glyphname = f;
lastChange = "2013-02-25 21:23:55 -0800";
layers = (
{
anchors = (
{
name = _top;
position = "{405, 1026}";
},
{
name = bot;
position = "{405, 0}";
}
);
layerId = "B8795E5A-CEF4-4AEB-A078-6E69DA5AAEE4";
name = Bold;
paths = (
{
closed = 1;
nodes = (
"686 1484 LINE SMOOTH",
"336 1484 OFFCURVE",
"261 1359 OFFCURVE",
"261 1073 CURVE SMOOTH",
"261 1026 LINE",
"72 1026 LINE",
"72 868 LINE",
"261 868 LINE",
"261 0 LINE",
"496 0 LINE",
"496 868 LINE",
"730 868 LINE",
"730 1026 LINE",
"496 1026 LINE",
"496 1045 OFFCURVE",
"496 1062 OFFCURVE",
"497 1079 CURVE SMOOTH",
"502 1298 OFFCURVE",
"545 1301 OFFCURVE",
"730 1301 CURVE SMOOTH",
"738 1484 LINE"
);
}
);
width = 812;
}
);
unicode = 0066;
},
{
glyphname = g;
lastChange = "2013-02-25 21:23:55 -0800";
layers = (
{
anchors = (
{
name = _top;
position = "{609, 1026}";
},
{
name = bot;
position = "{609, 0}";
},
{
name = top;
position = "{628, 0}";
}
);
layerId = "B8795E5A-CEF4-4AEB-A078-6E69DA5AAEE4";
name = Bold;
paths = (
{
closed = 1;
nodes = (
"263 1052 OFFCURVE",
"100 801 OFFCURVE",
"100 513 CURVE SMOOTH",
"100 205 OFFCURVE",
"280 0 OFFCURVE",
"584 0 CURVE SMOOTH",
"683 0 OFFCURVE",
"803 45 OFFCURVE",
"873 106 CURVE",
"873 66 LINE SMOOTH",
"873 -118 OFFCURVE",
"752 -201 OFFCURVE",
"561 -201 CURVE SMOOTH",
"463 -201 OFFCURVE",
"338 -163 OFFCURVE",
"214 -82 CURVE",
"182 -302 LINE",
"307 -366 OFFCURVE",
"440 -395 OFFCURVE",
"576 -395 CURVE SMOOTH",
"1018 -395 OFFCURVE",
"1105 -91 OFFCURVE",
"1105 168 CURVE SMOOTH",
"1105 695 LINE SMOOTH",
"1105 872 OFFCURVE",
"1123 1026 OFFCURVE",
"1123 1026 CURVE SMOOTH",
"874 1026 LINE",
"874 880 LINE",
"833 976 OFFCURVE",
"711 1052 OFFCURVE",
"592 1052 CURVE SMOOTH"
);
},
{
closed = 1;
nodes = (
"791 861 OFFCURVE",
"884 714 OFFCURVE",
"884 520 CURVE SMOOTH",
"884 350 OFFCURVE",
"815 179 OFFCURVE",
"611 179 CURVE SMOOTH",
"414 179 OFFCURVE",
"347 312 OFFCURVE",
"347 514 CURVE SMOOTH",
"347 700 OFFCURVE",
"431 861 OFFCURVE",
"614 861 CURVE SMOOTH"
);
}
);
width = 1255;
}
);
unicode = 0067;
},
{
glyphname = h;
lastChange = "2013-02-25 21:23:55 -0800";
layers = (
{
anchors = (
{
name = bot;
position = "{598, 0}";
},
{
name = center;
position = "{276, 1260}";
},
{
name = top;
position = "{460, 1456}";
}
);
layerId = "B8795E5A-CEF4-4AEB-A078-6E69DA5AAEE4";
name = Bold;
paths = (
{
closed = 1;
nodes = (
"142 1463 LINE",
"142 0 LINE",
"378 0 LINE",
"378 619 LINE SMOOTH",
"378 748 OFFCURVE",
"503 861 OFFCURVE",
"643 861 CURVE SMOOTH",
"767 861 OFFCURVE",
"816 785 OFFCURVE",
"816 586 CURVE SMOOTH",
"816 0 LINE",
"1053 0 LINE",
"1053 580 LINE SMOOTH",
"1053 777 OFFCURVE",
"1002 1052 OFFCURVE",
"674 1052 CURVE SMOOTH",
"563 1052 OFFCURVE",
"433 990 OFFCURVE",
"378 888 CURVE",
"378 1463 LINE"
);
}
);
width = 1185;
}
);
unicode = 0068;
},
{
glyphname = i;
lastChange = "2013-02-25 21:23:55 -0800";
layers = (
{
anchors = (
{
name = bot;
position = "{256, 0}";
}
);
layerId = "B8795E5A-CEF4-4AEB-A078-6E69DA5AAEE4";
name = Bold;
paths = (
{
closed = 1;
nodes = (
"142 1026 LINE",
"142 0 LINE",
"371 0 LINE",
"371 1026 LINE"
);
},
{
closed = 1;
nodes = (
"142 1435 LINE",
"142 1226 LINE",
"371 1226 LINE",
"371 1435 LINE"
);
}
);
width = 523;
}
);
unicode = 0069;
},
{
glyphname = dotlessi;
lastChange = "2013-02-25 21:23:55 -0800";
layers = (
{
anchors = (
{
name = ogonek;
position = "{453, 10}";
},
{
name = top;
position = "{252, 1026}";
}
);
layerId = "B8795E5A-CEF4-4AEB-A078-6E69DA5AAEE4";
name = Bold;
paths = (
{
closed = 1;
nodes = (
"123 1026 LINE",
"123 0 LINE",
"360 0 LINE",
"360 1026 LINE"
);
}
);
width = 503;
}
);
unicode = 0131;
},
{
glyphname = j;
lastChange = "2013-02-25 21:23:55 -0800";
layers = (
{
anchors = (
{
name = _top;
position = "{182, 1026}";
},
{
name = bot;
position = "{182, 0}";
}
);
layerId = "B8795E5A-CEF4-4AEB-A078-6E69DA5AAEE4";
name = Bold;
paths = (
{
closed = 1;
nodes = (
"196 1026 LINE",
"196 62 LINE SMOOTH",
"196 -114 OFFCURVE",
"150 -190 OFFCURVE",
"36 -190 CURVE SMOOTH",
"6 -190 OFFCURVE",
"-27 -185 OFFCURVE",
"-66 -175 CURVE",
"-96 -344 LINE",
"-18 -369 OFFCURVE",
"49 -381 OFFCURVE",
"107 -381 CURVE SMOOTH",
"366 -381 OFFCURVE",
"431 -181 OFFCURVE",
"431 36 CURVE SMOOTH",
"431 1026 LINE"
);
},
{
closed = 1;
nodes = (
"196 1435 LINE",
"196 1226 LINE",
"431 1226 LINE",
"431 1435 LINE"
);
}
);
width = 563;
}
);
unicode = 006A;
},
{
glyphname = dotlessj;
lastChange = "2013-02-25 21:23:55 -0800";
layers = (
{
anchors = (
{
name = top;
position = "{252, 1026}";
}
);
layerId = "B8795E5A-CEF4-4AEB-A078-6E69DA5AAEE4";
name = Bold;
paths = (
{
closed = 1;
nodes = (
"128 1026 LINE",
"128 62 LINE SMOOTH",
"128 -119 OFFCURVE",
"69 -202 OFFCURVE",
"-17 -202 CURVE SMOOTH",
"-36 -202 OFFCURVE",
"-68 -198 OFFCURVE",
"-134 -183 CURVE",
"-134 -383 LINE",
"-68 -396 OFFCURVE",
"-17 -402 OFFCURVE",
"25 -402 CURVE SMOOTH",
"323 -402 OFFCURVE",
"363 -129 OFFCURVE",
"363 96 CURVE SMOOTH",
"363 1026 LINE"
);
}
);
width = 503;
}
);
unicode = 0237;
},
{
glyphname = k;
lastChange = "2013-02-25 21:23:55 -0800";
layers = (
{
anchors = (
{
name = _top;
position = "{623, 1026}";
},
{
name = bot;
position = "{623, 0}";
},
{
name = bottom;
position = "{540, 0}";
}
);
layerId = "B8795E5A-CEF4-4AEB-A078-6E69DA5AAEE4";
name = Bold;
paths = (
{
closed = 1;
nodes = (
"142 1463 LINE",
"142 0 LINE",
"377 0 LINE",
"377 424 LINE",
"791 0 LINE",
"1104 0 LINE",
"555 539 LINE",
"1071 1026 LINE",
"746 1026 LINE",
"377 646 LINE",
"377 1463 LINE"
);
}
);
width = 1080;
}
);
unicode = 006B;
},
{
glyphname = kgreenlandic;
lastChange = "2013-02-25 21:23:55 -0800";
layers = (
{
layerId = "B8795E5A-CEF4-4AEB-A078-6E69DA5AAEE4";
name = Bold;
paths = (
{
closed = 1;
nodes = (
"756 1026 LINE",
"385 618 LINE",
"385 1026 LINE",
"150 1026 LINE",
"150 0 LINE",
"385 0 LINE",
"385 399 LINE",
"799 0 LINE",
"1112 0 LINE",
"938 158 OFFCURVE",
"862 229 OFFCURVE",
"816 274 CURVE SMOOTH",
"804 285 OFFCURVE",
"794 294 OFFCURVE",
"781 307 CURVE SMOOTH",
"740 346 OFFCURVE",
"687 395 OFFCURVE",
"563 509 CURVE",
"1077 1026 LINE"
);
}
);
width = 1082;
}
);
unicode = 0138;
},
{
glyphname = l;
lastChange = "2013-02-25 21:23:55 -0800";
layers = (
{
anchors = (
{
name = _top;
position = "{259, 1026}";
},
{
name = bot;
position = "{259, 0}";
},
{
name = bottom;
position = "{259, 0}";
},
{
name = top;
position = "{259, 0}";
},
{
name = topright;
position = "{498, 0}";
}
);
layerId = "B8795E5A-CEF4-4AEB-A078-6E69DA5AAEE4";
name = Bold;
paths = (
{
closed = 1;
nodes = (
"142 1463 LINE",
"142 0 LINE",
"376 0 LINE",
"376 1463 LINE"
);
}
);
width = 518;
}
);
unicode = 006C;
},
{
glyphname = lslash;
lastChange = "2013-02-25 21:23:55 -0800";
layers = (
{
layerId = "B8795E5A-CEF4-4AEB-A078-6E69DA5AAEE4";
name = Bold;
paths = (
{
closed = 1;
nodes = (
"124 1463 LINE",
"124 928 LINE",
"6 828 LINE",
"6 621 LINE",
"125 721 LINE",
"125 0 LINE",
"362 0 LINE",
"362 887 LINE",
"473 987 LINE",
"473 1197 LINE",
"361 1100 LINE",
"361 1463 LINE"
);
}
);
width = 503;
}
);
unicode = 0142;
},
{
glyphname = m;
lastChange = "2013-02-25 21:23:55 -0800";
layers = (
{
anchors = (
{
name = _top;
position = "{925, 1026}";
},
{
name = bot;
position = "{925, 0}";
}
);
layerId = "B8795E5A-CEF4-4AEB-A078-6E69DA5AAEE4";
name = Bold;
paths = (
{
closed = 1;
nodes = (
"1177 1052 OFFCURVE",
"1061 963 OFFCURVE",
"980 861 CURVE",
"917 984 OFFCURVE",
"818 1052 OFFCURVE",
"689 1052 CURVE SMOOTH",
"562 1052 OFFCURVE",
"440 977 OFFCURVE",
"390 880 CURVE",
"390 1026 LINE",
"142 1026 LINE",
"145 954 OFFCURVE",
"159 868 OFFCURVE",
"159 705 CURVE SMOOTH",
"159 0 LINE",
"395 0 LINE",
"395 620 LINE SMOOTH",
"395 745 OFFCURVE",
"516 861 OFFCURVE",
"655 861 CURVE SMOOTH",
"792 861 OFFCURVE",
"815 729 OFFCURVE",
"815 628 CURVE SMOOTH",
"815 0 LINE",
"1051 0 LINE",
"1051 582 LINE SMOOTH",
"1051 719 OFFCURVE",
"1144 861 OFFCURVE",
"1301 861 CURVE SMOOTH",
"1466 861 OFFCURVE",
"1468 669 OFFCURVE",
"1468 553 CURVE SMOOTH",
"1468 0 LINE",
"1704 0 LINE",
"1704 629 LINE SMOOTH",
"1704 885 OFFCURVE",
"1585 1052 OFFCURVE",
"1333 1052 CURVE SMOOTH"
);
}
);
width = 1836;
}
);
unicode = 006D;
},
{
glyphname = n;
lastChange = "2013-02-25 21:23:55 -0800";
layers = (
{
anchors = (
{
name = bottom;
position = "{604, 0}";
},
{
name = top;
position = "{657, 1026}";
}
);
layerId = "B8795E5A-CEF4-4AEB-A078-6E69DA5AAEE4";
name = Bold;
paths = (
{
closed = 1;
nodes = (
"591 1052 OFFCURVE",
"452 995 OFFCURVE",
"391 879 CURVE",
"391 1026 LINE",
"142 1026 LINE SMOOTH",
"142 1026 OFFCURVE",
"160 883 OFFCURVE",
"160 656 CURVE SMOOTH",
"160 0 LINE",
"396 0 LINE",
"396 620 LINE SMOOTH",
"396 764 OFFCURVE",
"543 861 OFFCURVE",
"650 861 CURVE SMOOTH",
"792 861 OFFCURVE",
"831 781 OFFCURVE",
"831 592 CURVE SMOOTH",
"831 0 LINE",
"1067 0 LINE",
"1067 580 LINE SMOOTH",
"1067 928 OFFCURVE",
"935 1052 OFFCURVE",
"698 1052 CURVE SMOOTH"
);
}
);
width = 1199;
}
);
unicode = 006E;
},
{
glyphname = o;
lastChange = "2013-02-25 21:23:55 -0800";
layers = (
{
anchors = (
{
name = bottom;
position = "{630, 0}";
},
{
name = top;
position = "{634, 1026}";
}
);
layerId = "B8795E5A-CEF4-4AEB-A078-6E69DA5AAEE4";
name = Bold;
paths = (
{
closed = 1;
nodes = (
"293 1052 OFFCURVE",
"100 805 OFFCURVE",
"100 513 CURVE SMOOTH",
"100 222 OFFCURVE",
"291 -23 OFFCURVE",
"638 -23 CURVE SMOOTH",
"978 -23 OFFCURVE",
"1168 225 OFFCURVE",
"1168 511 CURVE SMOOTH",
"1168 807 OFFCURVE",
"990 1052 OFFCURVE",
"638 1052 CURVE SMOOTH"
);
},
{
closed = 1;
nodes = (
"833 861 OFFCURVE",
"922 707 OFFCURVE",
"922 515 CURVE SMOOTH",
"922 328 OFFCURVE",
"839 168 OFFCURVE",
"635 168 CURVE SMOOTH",
"431 168 OFFCURVE",
"346 328 OFFCURVE",
"346 515 CURVE SMOOTH",
"346 707 OFFCURVE",
"437 861 OFFCURVE",
"635 861 CURVE SMOOTH"
);
}
);
width = 1268;
}
);
unicode = 006F;
},
{
glyphname = oslash;
lastChange = "2013-02-25 21:23:55 -0800";
layers = (
{
anchors = (
{
name = top;
position = "{634, 0}";
}
);
layerId = "B8795E5A-CEF4-4AEB-A078-6E69DA5AAEE4";
name = Bold;
paths = (
{
closed = 1;
nodes = (
"805 1031 LINE",
"755 1044 OFFCURVE",
"699 1052 OFFCURVE",
"638 1052 CURVE SMOOTH",
"293 1052 OFFCURVE",
"100 805 OFFCURVE",
"100 513 CURVE SMOOTH",
"100 317 OFFCURVE",
"187 142 OFFCURVE",
"350 48 CURVE",
"266 -132 LINE",
"377 -189 LINE",
"465 0 LINE",
"517 -15 OFFCURVE",
"575 -23 OFFCURVE",
"638 -23 CURVE SMOOTH",
"978 -23 OFFCURVE",
"1168 225 OFFCURVE",
"1168 511 CURVE SMOOTH",
"1168 712 OFFCURVE",
"1085 890 OFFCURVE",
"921 983 CURVE",
"1012 1179 LINE",
"901 1236 LINE"
);
},
{
closed = 1;
nodes = (
"666 861 OFFCURVE",
"695 857 OFFCURVE",
"721 849 CURVE",
"439 242 LINE",
"375 306 OFFCURVE",
"346 406 OFFCURVE",
"346 515 CURVE SMOOTH",
"346 707 OFFCURVE",
"437 861 OFFCURVE",
"635 861 CURVE SMOOTH"
);
},
{
closed = 1;
nodes = (
"892 723 OFFCURVE",
"922 625 OFFCURVE",
"922 515 CURVE SMOOTH",
"922 328 OFFCURVE",
"839 168 OFFCURVE",
"635 168 CURVE SMOOTH",
"603 168 OFFCURVE",
"574 172 OFFCURVE",
"548 179 CURVE",
"830 786 LINE"
);
}
);
width = 1268;
}
);
unicode = 00F8;
},
{
glyphname = oe;
lastChange = "2013-02-25 21:23:55 -0800";
layers = (
{
anchors = (
{
name = top;
position = "{999, 0}";
}
);
layerId = "B8795E5A-CEF4-4AEB-A078-6E69DA5AAEE4";
name = Bold;
paths = (
{
closed = 1;
nodes = (
"1193 1055 OFFCURVE",
"1094 1002 OFFCURVE",
"1015 881 CURVE",
"942 989 OFFCURVE",
"822 1055 OFFCURVE",
"638 1055 CURVE SMOOTH",
"296 1055 OFFCURVE",
"100 804 OFFCURVE",
"100 511 CURVE SMOOTH",
"100 215 OFFCURVE",
"299 -32 OFFCURVE",
"631 -32 CURVE SMOOTH",
"790 -32 OFFCURVE",
"948 26 OFFCURVE",
"1015 136 CURVE",
"1089 30 OFFCURVE",
"1220 -32 OFFCURVE",
"1382 -32 CURVE SMOOTH",
"1563 -32 OFFCURVE",
"1733 53 OFFCURVE",
"1825 231 CURVE",
"1686 367 LINE",
"1610 243 OFFCURVE",
"1502 167 OFFCURVE",
"1387 167 CURVE SMOOTH",
"1247 167 OFFCURVE",
"1160 273 OFFCURVE",
"1144 436 CURVE",
"1859 441 LINE",
"1859 504 LINE SMOOTH",
"1859 834 OFFCURVE",
"1676 1055 OFFCURVE",
"1382 1055 CURVE SMOOTH"
);
},
{
closed = 1;
nodes = (
"823 861 OFFCURVE",
"900 709 OFFCURVE",
"900 511 CURVE SMOOTH",
"900 328 OFFCURVE",
"820 167 OFFCURVE",
"639 167 CURVE SMOOTH",
"437 167 OFFCURVE",
"346 322 OFFCURVE",
"346 508 CURVE SMOOTH",
"346 696 OFFCURVE",
"446 861 OFFCURVE",
"632 861 CURVE SMOOTH"
);
},
{
closed = 1;
nodes = (
"1520 861 OFFCURVE",
"1589 769 OFFCURVE",
"1606 638 CURVE",
"1606 636 LINE",
"1146 636 LINE",
"1172 753 OFFCURVE",
"1261 861 OFFCURVE",
"1394 861 CURVE SMOOTH"
);
},
{
closed = 1;
nodes = (
"1607 603 LINE",
"1607 610 OFFCURVE",
"1607 616 OFFCURVE",
"1609 621 CURVE",
"1595 636 LINE",
"1654 636 LINE"
);
}
);
width = 1998;
}
);
unicode = 0153;
},
{
glyphname = p;
lastChange = "2013-02-25 21:23:55 -0800";
layers = (
{
anchors = (
{
name = _top;
position = "{655, 1026}";
},
{
name = bot;
position = "{655, 0}";
}
);
layerId = "B8795E5A-CEF4-4AEB-A078-6E69DA5AAEE4";
name = Bold;
paths = (
{
closed = 1;
nodes = (
"587 1052 OFFCURVE",
"447 994 OFFCURVE",
"390 880 CURVE",
"390 1026 LINE",
"142 1026 LINE",
"149 919 OFFCURVE",
"159 793 OFFCURVE",
"159 692 CURVE SMOOTH",
"159 -400 LINE",
"392 -400 LINE",
"392 95 LINE",
"470 25 OFFCURVE",
"574 -23 OFFCURVE",
"681 -23 CURVE SMOOTH",
"1003 -23 OFFCURVE",
"1162 240 OFFCURVE",
"1162 525 CURVE SMOOTH",
"1162 809 OFFCURVE",
"992 1052 OFFCURVE",
"692 1052 CURVE SMOOTH"
);
},
{
closed = 1;
nodes = (
"833 861 OFFCURVE",
"916 707 OFFCURVE",
"916 515 CURVE SMOOTH",
"916 328 OFFCURVE",
"839 168 OFFCURVE",
"649 168 CURVE SMOOTH",
"459 168 OFFCURVE",
"380 328 OFFCURVE",
"380 515 CURVE SMOOTH",
"380 707 OFFCURVE",
"465 861 OFFCURVE",
"649 861 CURVE SMOOTH"
);
}
);
width = 1262;
}
);
unicode = 0070;
},
{
glyphname = thorn;
lastChange = "2013-02-25 21:23:55 -0800";
layers = (
{
layerId = "B8795E5A-CEF4-4AEB-A078-6E69DA5AAEE4";
name = Bold;
paths = (
{
closed = 1;
nodes = (
"143 1542 LINE",
"143 -400 LINE",
"365 -400 LINE",
"366 59 LINE",
"444 8 OFFCURVE",
"543 -23 OFFCURVE",
"650 -23 CURVE SMOOTH",
"972 -23 OFFCURVE",
"1130 240 OFFCURVE",
"1130 525 CURVE SMOOTH",
"1130 808 OFFCURVE",
"974 1051 OFFCURVE",
"626 1051 CURVE SMOOTH",
"534 1051 OFFCURVE",
"447 1015 OFFCURVE",
"368 962 CURVE",
"371 1542 LINE"
);
},
{
closed = 1;
nodes = (
"820 859 OFFCURVE",
"882 696 OFFCURVE",
"882 521 CURVE SMOOTH",
"882 335 OFFCURVE",
"805 167 OFFCURVE",
"622 167 CURVE SMOOTH",
"453 167 OFFCURVE",
"366 306 OFFCURVE",
"366 494 CURVE SMOOTH",
"366 685 OFFCURVE",
"433 859 OFFCURVE",
"630 859 CURVE SMOOTH"
);
}
);
width = 1230;
}
);
unicode = 00FE;
},
{
glyphname = q;
lastChange = "2013-02-25 21:23:55 -0800";
layers = (
{
anchors = (
{
name = _top;
position = "{606, 1026}";
},
{
name = bot;
position = "{606, 0}";
}
);
layerId = "B8795E5A-CEF4-4AEB-A078-6E69DA5AAEE4";
name = Bold;
paths = (
{
closed = 1;
nodes = (
"272 1052 OFFCURVE",
"100 809 OFFCURVE",
"100 525 CURVE SMOOTH",
"100 240 OFFCURVE",
"259 -23 OFFCURVE",
"581 -23 CURVE SMOOTH",
"688 -23 OFFCURVE",
"792 25 OFFCURVE",
"870 95 CURVE",
"870 -400 LINE",
"1103 -400 LINE",
"1103 742 LINE SMOOTH",
"1103 828 OFFCURVE",
"1106 934 OFFCURVE",
"1113 1026 CURVE",
"872 1026 LINE",
"872 910 LINE",
"792 1006 OFFCURVE",
"683 1052 OFFCURVE",
"584 1052 CURVE SMOOTH"
);
},
{
closed = 1;
nodes = (
"797 861 OFFCURVE",
"882 707 OFFCURVE",
"882 515 CURVE SMOOTH",
"882 328 OFFCURVE",
"803 168 OFFCURVE",
"613 168 CURVE SMOOTH",
"423 168 OFFCURVE",
"346 328 OFFCURVE",
"346 515 CURVE SMOOTH",
"346 707 OFFCURVE",
"429 861 OFFCURVE",
"613 861 CURVE SMOOTH"
);
}
);
width = 1255;
}
);
unicode = 0071;
},
{
glyphname = r;
lastChange = "2013-02-25 21:23:55 -0800";
layers = (
{
anchors = (
{
name = bottom;
position = "{330, 0}";
},
{
name = top;
position = "{378, 1026}";
}
);
layerId = "B8795E5A-CEF4-4AEB-A078-6E69DA5AAEE4";
name = Bold;
paths = (
{
closed = 1;
nodes = (
"544 1052 OFFCURVE",
"465 988 OFFCURVE",
"393 886 CURVE",
"393 1026 LINE",
"142 1026 LINE SMOOTH",
"142 1026 OFFCURVE",
"160 882 OFFCURVE",
"160 768 CURVE SMOOTH",
"160 0 LINE",
"396 0 LINE",
"396 579 LINE SMOOTH",
"396 761 OFFCURVE",
"499 851 OFFCURVE",
"634 851 CURVE SMOOTH",
"672 851 OFFCURVE",
"714 844 OFFCURVE",
"756 830 CURVE",
"756 1037 LINE",
"719 1047 OFFCURVE",
"684 1052 OFFCURVE",
"653 1052 CURVE SMOOTH"
);
}
);
width = 780;
}
);
unicode = 0072;
},
{
glyphname = s;
lastChange = "2013-02-25 21:23:55 -0800";
layers = (
{
anchors = (
{
name = bottom;
position = "{517, 0}";
},
{
name = top;
position = "{511, 1026}";
}
);
layerId = "B8795E5A-CEF4-4AEB-A078-6E69DA5AAEE4";
name = Bold;
paths = (
{
closed = 1;
nodes = (
"337 1052 OFFCURVE",
"117 974 OFFCURVE",
"117 756 CURVE SMOOTH",
"117 529 OFFCURVE",
"321 469 OFFCURVE",
"494 417 CURVE SMOOTH",
"604 384 OFFCURVE",
"699 355 OFFCURVE",
"699 289 CURVE SMOOTH",
"699 201 OFFCURVE",
"620 168 OFFCURVE",
"507 168 CURVE SMOOTH",
"382 168 OFFCURVE",
"245 219 OFFCURVE",
"168 273 CURVE",
"112 98 LINE",
"187 36 OFFCURVE",
"340 -23 OFFCURVE",
"541 -23 CURVE SMOOTH",
"717 -23 OFFCURVE",
"938 58 OFFCURVE",
"938 293 CURVE SMOOTH",
"938 495 OFFCURVE",
"736 568 OFFCURVE",
"575 618 CURVE SMOOTH",
"472 651 OFFCURVE",
"358 689 OFFCURVE",
"358 759 CURVE SMOOTH",
"358 853 OFFCURVE",
"460 861 OFFCURVE",
"524 861 CURVE SMOOTH",
"594 861 OFFCURVE",
"702 851 OFFCURVE",
"814 782 CURVE",
"880 951 LINE",
"806 1011 OFFCURVE",
"686 1052 OFFCURVE",
"507 1052 CURVE SMOOTH"
);
}
);
width = 1022;
}
);
unicode = 0073;
},
{
glyphname = germandbls;
lastChange = "2013-02-25 21:23:55 -0800";
layers = (
{
layerId = "B8795E5A-CEF4-4AEB-A078-6E69DA5AAEE4";
name = Bold;
paths = (
{
closed = 1;
nodes = (
"357 1483 OFFCURVE",
"195 1300 OFFCURVE",
"192 1035 CURVE SMOOTH",
"195 0 LINE",
"432 0 LINE",
"432 479 OFFCURVE",
"424 519 OFFCURVE",
"424 1005 CURVE SMOOTH",
"424 1143 OFFCURVE",
"499 1295 OFFCURVE",
"637 1295 CURVE SMOOTH",
"731 1295 OFFCURVE",
"798 1240 OFFCURVE",
"798 1149 CURVE SMOOTH",
"798 1036 OFFCURVE",
"695 937 OFFCURVE",
"578 887 CURVE",
"564 727 LINE",
"771 609 OFFCURVE",
"952 494 OFFCURVE",
"952 334 CURVE SMOOTH",
"952 228 OFFCURVE",
"887 168 OFFCURVE",
"808 168 CURVE SMOOTH",
"747 168 OFFCURVE",
"659 217 OFFCURVE",
"564 327 CURVE",
"463 160 LINE",
"563 34 OFFCURVE",
"696 -23 OFFCURVE",
"814 -23 CURVE SMOOTH",
"1017 -23 OFFCURVE",
"1212 121 OFFCURVE",
"1212 352 CURVE SMOOTH",
"1212 614 OFFCURVE",
"963 766 OFFCURVE",
"734 819 CURVE",
"916 871 OFFCURVE",
"1058 1011 OFFCURVE",
"1058 1165 CURVE SMOOTH",
"1058 1341 OFFCURVE",
"892 1483 OFFCURVE",
"636 1483 CURVE SMOOTH"
);
}
);
width = 1307;
}
);
unicode = 00DF;
},
{
glyphname = t;
lastChange = "2013-02-25 21:23:55 -0800";
layers = (
{
anchors = (
{
name = _top;
position = "{359, 1026}";
},
{
name = bot;
position = "{359, 0}";
},
{
name = bottom;
position = "{396, 0}";
},
{
name = center;
position = "{396, 0}";
}
);
layerId = "B8795E5A-CEF4-4AEB-A078-6E69DA5AAEE4";
name = Bold;
paths = (
{
closed = 1;
nodes = (
"225 1271 LINE",
"225 1026 LINE",
"48 1026 LINE",
"48 868 LINE",
"217 868 LINE",
"217 388 LINE SMOOTH",
"217 14 OFFCURVE",
"443 1 OFFCURVE",
"648 1 CURVE SMOOTH",
"694 1 LINE",
"694 182 LINE",
"554 182 OFFCURVE",
"452 180 OFFCURVE",
"452 360 CURVE SMOOTH",
"452 868 LINE",
"717 868 LINE",
"717 1026 LINE",
"452 1026 LINE",
"452 1340 LINE"
);
}
);
width = 792;
}
);
unicode = 0074;
},
{
glyphname = u;
lastChange = "2013-02-25 21:23:55 -0800";
layers = (
{
anchors = (
{
name = ogonek;
position = "{1081, 10}";
},
{
name = top;
position = "{601, 1026}";
}
);
layerId = "B8795E5A-CEF4-4AEB-A078-6E69DA5AAEE4";
name = Bold;
paths = (
{
closed = 1;
nodes = (
"805 1026 LINE",
"805 412 LINE SMOOTH",
"805 284 OFFCURVE",
"719 168 OFFCURVE",
"567 168 CURVE SMOOTH",
"440 168 OFFCURVE",
"366 241 OFFCURVE",
"366 388 CURVE SMOOTH",
"366 1026 LINE",
"132 1026 LINE",
"132 396 LINE SMOOTH",
"132 195 OFFCURVE",
"216 -23 OFFCURVE",
"534 -23 CURVE SMOOTH",
"641 -23 OFFCURVE",
"775 40 OFFCURVE",
"808 107 CURVE",
"813 0 LINE",
"1059 0 LINE",
"1059 0 OFFCURVE",
"1041 153 OFFCURVE",
"1041 272 CURVE SMOOTH",
"1041 1026 LINE"
);
}
);
width = 1201;
}
);
unicode = 0075;
},
{
glyphname = v;
lastChange = "2013-02-25 21:23:55 -0800";
layers = (
{
anchors = (
{
name = _top;
position = "{557, 1026}";
},
{
name = bot;
position = "{557, 0}";
}
);
layerId = "B8795E5A-CEF4-4AEB-A078-6E69DA5AAEE4";
name = Bold;
paths = (
{
closed = 1;
nodes = (
"843 1026 LINE",
"646 482 LINE",
"566 260 LINE",
"482 482 LINE",
"278 1026 LINE",
"16 1026 LINE",
"448 0 LINE",
"664 0 LINE",
"1098 1026 LINE"
);
}
);
width = 1114;
}
);
unicode = 0076;
},
{
glyphname = w;
lastChange = "2013-02-25 21:23:55 -0800";
layers = (
{
anchors = (
{
name = _top;
position = "{842, 1026}";
},
{
name = bot;
position = "{842, 0}";
},
{
name = top;
position = "{843, 0}";
}
);
layerId = "B8795E5A-CEF4-4AEB-A078-6E69DA5AAEE4";
name = Bold;
paths = (
{
closed = 1;
nodes = (
"1442 1026 LINE",
"1245 415 LINE",
"1204 286 LINE",
"967 1026 LINE",
"761 1026 LINE",
"564 441 LINE",
"513 288 LINE",
"462 447 LINE",
"275 1026 LINE",
"22 1026 LINE",
"390 0 LINE",
"591 0 LINE",
"797 586 LINE",
"846 724 LINE",
"891 586 LINE",
"1085 0 LINE",
"1285 0 LINE",
"1663 1026 LINE"
);
}
);
width = 1685;
}
);
unicode = 0077;
},
{
glyphname = x;
lastChange = "2013-02-25 21:23:55 -0800";
layers = (
{
anchors = (
{
name = _top;
position = "{492, 1026}";
},
{
name = bot;
position = "{492, 0}";
}
);
layerId = "B8795E5A-CEF4-4AEB-A078-6E69DA5AAEE4";
name = Bold;
paths = (
{
closed = 1;
nodes = (
"777 1026 LINE",
"20 0 LINE",
"268 0 LINE",
"1021 1026 LINE"
);
},
{
closed = 1;
nodes = (
"38 1026 LINE",
"419 460 LINE",
"472 424 LINE",
"764 0 LINE",
"1024 0 LINE",
"602 613 LINE",
"564 628 LINE",
"299 1026 LINE"
);
}
);
width = 1044;
}
);
unicode = 0078;
},
{
glyphname = y;
lastChange = "2013-02-25 21:23:55 -0800";
layers = (
{
anchors = (
{
name = top;
position = "{574, 1026}";
}
);
layerId = "B8795E5A-CEF4-4AEB-A078-6E69DA5AAEE4";
name = Bold;
paths = (
{
closed = 1;
nodes = (
"872 1026 LINE",
"585 295 LINE",
"300 1026 LINE",
"44 1026 LINE",
"464 27 LINE",
"454 -7 LINE SMOOTH",
"429 -89 OFFCURVE",
"353 -179 OFFCURVE",
"127 -240 CURVE",
"230 -406 LINE",
"442 -364 OFFCURVE",
"595 -263 OFFCURVE",
"683 -49 CURVE SMOOTH",
"1123 1026 LINE"
);
}
);
width = 1147;
}
);
unicode = 0079;
},
{
glyphname = z;
lastChange = "2013-02-25 21:23:55 -0800";
layers = (
{
anchors = (
{
name = top;
position = "{560, 1026}";
}
);
layerId = "B8795E5A-CEF4-4AEB-A078-6E69DA5AAEE4";
name = Bold;
paths = (
{
closed = 1;
nodes = (
"164 1026 LINE",
"164 837 LINE",
"637 837 LINE",
"142 125 LINE",
"142 0 LINE",
"972 0 LINE",
"950 188 LINE",
"445 188 LINE",
"939 903 LINE",
"939 1026 LINE"
);
}
);
width = 1040;
}
);
unicode = 007A;
},
{
glyphname = fi;
lastChange = "2013-02-25 21:23:55 -0800";
layers = (
{
layerId = "B8795E5A-CEF4-4AEB-A078-6E69DA5AAEE4";
name = Bold;
paths = (
{
closed = 1;
nodes = (
"686 1484 LINE SMOOTH",
"336 1484 OFFCURVE",
"261 1359 OFFCURVE",
"261 1073 CURVE SMOOTH",
"261 1026 LINE",
"72 1026 LINE",
"72 868 LINE",
"261 868 LINE",
"261 0 LINE",
"496 0 LINE",
"496 868 LINE",
"808 868 LINE",
"808 0 LINE",
"1043 0 LINE",
"1043 1026 LINE",
"496 1026 LINE",
"496 1298 OFFCURVE",
"531 1301 OFFCURVE",
"730 1301 CURVE SMOOTH",
"738 1301 LINE",
"738 1484 LINE"
);
},
{
closed = 1;
nodes = (
"821 1483 LINE",
"821 1274 LINE",
"1043 1274 LINE",
"1043 1483 LINE"
);
}
);
width = 1198;
}
);
unicode = FB01;
},
{
glyphname = fl;
lastChange = "2013-02-25 21:23:55 -0800";
layers = (
{
layerId = "B8795E5A-CEF4-4AEB-A078-6E69DA5AAEE4";
name = Bold;
paths = (
{
closed = 1;
nodes = (
"336 1485 OFFCURVE",
"261 1358 OFFCURVE",
"261 1073 CURVE SMOOTH",
"261 1026 LINE",
"72 1026 LINE",
"72 868 LINE",
"261 868 LINE",
"261 0 LINE",
"496 0 LINE",
"496 868 LINE",
"730 868 LINE",
"730 1026 LINE",
"496 1026 LINE",
"496 1298 OFFCURVE",
"531 1301 OFFCURVE",
"730 1301 CURVE SMOOTH",
"828 1301 LINE",
"828 0 LINE",
"1062 0 LINE",
"1062 1483 LINE",
"686 1484 LINE SMOOTH"
);
}
);
width = 1217;
}
);
unicode = FB02;
},
{
glyphname = Omega;
lastChange = "2013-02-25 21:23:55 -0800";
layers = (
{
anchors = (
{
name = topleft;
position = "{20, 0}";
}
);
layerId = "B8795E5A-CEF4-4AEB-A078-6E69DA5AAEE4";
name = Bold;
paths = (
{
closed = 1;
nodes = (
"384 1437 OFFCURVE",
"86 1176 OFFCURVE",
"86 768 CURVE SMOOTH",
"86 527 OFFCURVE",
"181 336 OFFCURVE",
"333 194 CURVE",
"36 196 LINE",
"81 0 LINE",
"673 0 LINE",
"668 163 LINE",
"474 290 OFFCURVE",
"340 506 OFFCURVE",
"340 749 CURVE SMOOTH",
"340 1037 OFFCURVE",
"522 1239 OFFCURVE",
"783 1239 CURVE SMOOTH",
"1067 1239 OFFCURVE",
"1211 1010 OFFCURVE",
"1211 746 CURVE SMOOTH",
"1211 503 OFFCURVE",
"1069 295 OFFCURVE",
"877 163 CURVE",
"883 0 LINE",
"1438 0 LINE",
"1459 196 LINE",
"1416 196 OFFCURVE",
"1363 195 OFFCURVE",
"1319 195 CURVE SMOOTH",
"1283 194 OFFCURVE",
"1247 194 OFFCURVE",
"1210 194 CURVE",
"1353 326 OFFCURVE",
"1464 512 OFFCURVE",
"1464 758 CURVE SMOOTH",
"1464 1144 OFFCURVE",
"1201 1437 OFFCURVE",
"785 1437 CURVE SMOOTH"
);
}
);
width = 1603;
}
);
unicode = 03A9;
},
{
glyphname = mu;
lastChange = "2013-02-25 21:23:55 -0800";
layers = (
{
layerId = "B8795E5A-CEF4-4AEB-A078-6E69DA5AAEE4";
name = Bold;
paths = (
{
closed = 1;
nodes = (
"799 1026 LINE",
"799 452 LINE SMOOTH",
"799 304 OFFCURVE",
"712 167 OFFCURVE",
"560 167 CURVE SMOOTH",
"416 167 OFFCURVE",
"363 267 OFFCURVE",
"363 444 CURVE",
"359 1026 LINE",
"128 1026 LINE",
"128 -227 LINE",
"368 -227 LINE",
"368 -109 LINE SMOOTH",
"368 -75 OFFCURVE",
"367 -39 OFFCURVE",
"367 -6 CURVE",
"412 -16 OFFCURVE",
"467 -23 OFFCURVE",
"527 -23 CURVE SMOOTH",
"632 -23 OFFCURVE",
"726 6 OFFCURVE",
"802 52 CURVE",
"806 0 LINE",
"1051 0 LINE",
"1041 92 OFFCURVE",
"1037 166 OFFCURVE",
"1037 262 CURVE",
"1036 1026 LINE"
);
}
);
width = 1217;
}
);
unicode = 03BC;
},
{
glyphname = ordfeminine;
lastChange = "2013-02-25 21:23:55 -0800";
layers = (
{
layerId = "B8795E5A-CEF4-4AEB-A078-6E69DA5AAEE4";
name = Bold;
paths = (
{
closed = 1;
nodes = (
"262 1448 OFFCURVE",
"157 1430 OFFCURVE",
"83 1386 CURVE",
"147 1244 LINE",
"217 1271 OFFCURVE",
"297 1295 OFFCURVE",
"361 1295 CURVE SMOOTH",
"436 1295 OFFCURVE",
"491 1263 OFFCURVE",
"491 1169 CURVE SMOOTH",
"491 1163 OFFCURVE",
"490 1156 OFFCURVE",
"490 1149 CURVE",
"176 1142 OFFCURVE",
"29 1061 OFFCURVE",
"29 909 CURVE SMOOTH",
"29 772 OFFCURVE",
"134 716 OFFCURVE",
"258 716 CURVE SMOOTH",
"382 716 OFFCURVE",
"455 769 OFFCURVE",
"501 892 CURVE",
"516 747 LINE",
"686 747 LINE",
"681 793 OFFCURVE",
"675 818 OFFCURVE",
"675 1178 CURVE SMOOTH",
"675 1388 OFFCURVE",
"538 1448 OFFCURVE",
"380 1448 CURVE SMOOTH"
);
},
{
closed = 1;
nodes = (
"483 928 OFFCURVE",
"377 838 OFFCURVE",
"297 838 CURVE SMOOTH",
"237 838 OFFCURVE",
"221 865 OFFCURVE",
"221 907 CURVE SMOOTH",
"221 1014 OFFCURVE",
"375 1024 OFFCURVE",
"489 1031 CURVE"
);
}
);
width = 745;
}
);
unicode = 00AA;
},
{
glyphname = ordmasculine;
lastChange = "2013-02-25 21:23:55 -0800";
layers = (
{
layerId = "B8795E5A-CEF4-4AEB-A078-6E69DA5AAEE4";
name = Bold;
paths = (
{
closed = 1;
nodes = (
"159 1447 OFFCURVE",
"19 1288 OFFCURVE",
"19 1086 CURVE SMOOTH",
"19 878 OFFCURVE",
"150 720 OFFCURVE",
"403 720 CURVE SMOOTH",
"645 720 OFFCURVE",
"779 884 OFFCURVE",
"779 1082 CURVE SMOOTH",
"779 1284 OFFCURVE",
"643 1447 OFFCURVE",
"400 1447 CURVE SMOOTH"
);
},
{
closed = 1;
nodes = (
"507 1283 OFFCURVE",
"564 1194 OFFCURVE",
"564 1081 CURVE SMOOTH",
"564 976 OFFCURVE",
"507 884 OFFCURVE",
"400 884 CURVE SMOOTH",
"288 884 OFFCURVE",
"235 973 OFFCURVE",
"235 1084 CURVE SMOOTH",
"235 1191 OFFCURVE",
"296 1283 OFFCURVE",
"401 1283 CURVE SMOOTH"
);
}
);
width = 824;
}
);
unicode = 00BA;
},
{
glyphname = zero;
lastChange = "2013-02-25 21:23:55 -0800";
layers = (
{
layerId = "B8795E5A-CEF4-4AEB-A078-6E69DA5AAEE4";
name = Bold;
paths = (
{
closed = 1;
nodes = (
"292 1426 OFFCURVE",
"114 1153 OFFCURVE",
"114 704 CURVE SMOOTH",
"114 277 OFFCURVE",
"259 -23 OFFCURVE",
"626 -23 CURVE SMOOTH",
"965 -23 OFFCURVE",
"1145 255 OFFCURVE",
"1145 680 CURVE SMOOTH",
"1145 1115 OFFCURVE",
"1024 1426 OFFCURVE",
"628 1426 CURVE SMOOTH"
);
},
{
closed = 1;
nodes = (
"858 1231 OFFCURVE",
"887 910 OFFCURVE",
"887 678 CURVE SMOOTH",
"887 385 OFFCURVE",
"806 176 OFFCURVE",
"630 176 CURVE SMOOTH",
"401 176 OFFCURVE",
"364 478 OFFCURVE",
"364 716 CURVE SMOOTH",
"364 1016 OFFCURVE",
"448 1231 OFFCURVE",
"630 1231 CURVE SMOOTH"
);
}
);
width = 1259;
}
);
unicode = 0030;
},
{
glyphname = one;
lastChange = "2013-02-25 21:23:55 -0800";
layers = (
{
layerId = "B8795E5A-CEF4-4AEB-A078-6E69DA5AAEE4";
name = Bold;
paths = (
{
closed = 1;
nodes = (
"473 1384 LINE",
"384 1334 OFFCURVE",
"286 1282 OFFCURVE",
"180 1242 CURVE",
"181 1023 LINE",
"293 1067 OFFCURVE",
"371 1101 OFFCURVE",
"442 1136 CURVE",
"442 192 LINE",
"239 192 LINE",
"239 0 LINE",
"893 0 LINE",
"893 189 LINE",
"692 189 LINE",
"692 1422 LINE"
);
}
);
width = 1015;
}
);
unicode = 0031;
},
{
glyphname = two;
lastChange = "2013-02-25 21:23:55 -0800";
layers = (
{
layerId = "B8795E5A-CEF4-4AEB-A078-6E69DA5AAEE4";
name = Bold;
paths = (
{
closed = 1;
nodes = (
"413 1421 OFFCURVE",
"232 1326 OFFCURVE",
"137 1168 CURVE",
"282 1028 LINE",
"365 1151 OFFCURVE",
"490 1226 OFFCURVE",
"627 1226 CURVE SMOOTH",
"756 1226 OFFCURVE",
"849 1162 OFFCURVE",
"849 1029 CURVE SMOOTH",
"849 840 OFFCURVE",
"345 384 OFFCURVE",
"142 178 CURVE",
"142 0 LINE",
"1099 0 LINE",
"1099 199 LINE",
"456 199 LINE SMOOTH",
"456 199 OFFCURVE",
"1094 769 OFFCURVE",
"1094 1038 CURVE SMOOTH",
"1094 1273 OFFCURVE",
"905 1421 OFFCURVE",
"632 1421 CURVE SMOOTH"
);
}
);
width = 1260;
}
);
unicode = 0032;
},
{
glyphname = three;
lastChange = "2013-02-25 21:23:55 -0800";
layers = (
{
layerId = "B8795E5A-CEF4-4AEB-A078-6E69DA5AAEE4";
name = Bold;
paths = (
{
closed = 1;
nodes = (
"361 1422 OFFCURVE",
"178 1349 OFFCURVE",
"66 1202 CURVE",
"210 1040 LINE",
"298 1169 OFFCURVE",
"429 1225 OFFCURVE",
"578 1225 CURVE SMOOTH",
"710 1225 OFFCURVE",
"808 1169 OFFCURVE",
"808 1054 CURVE SMOOTH",
"808 879 OFFCURVE",
"698 824 OFFCURVE",
"495 824 CURVE SMOOTH",
"487 824 OFFCURVE",
"425 824 OFFCURVE",
"391 825 CURVE",
"396 627 LINE",
"438 629 OFFCURVE",
"487 629 OFFCURVE",
"511 629 CURVE SMOOTH",
"722 629 OFFCURVE",
"851 566 OFFCURVE",
"851 403 CURVE SMOOTH",
"851 263 OFFCURVE",
"730 176 OFFCURVE",
"579 176 CURVE SMOOTH",
"421 176 OFFCURVE",
"281 244 OFFCURVE",
"207 366 CURVE",
"80 203 LINE",
"152 54 OFFCURVE",
"347 -23 OFFCURVE",
"588 -23 CURVE SMOOTH",
"863 -23 OFFCURVE",
"1101 136 OFFCURVE",
"1101 398 CURVE SMOOTH",
"1101 565 OFFCURVE",
"979 705 OFFCURVE",
"779 742 CURVE",
"979 772 OFFCURVE",
"1064 903 OFFCURVE",
"1064 1048 CURVE SMOOTH",
"1064 1292 OFFCURVE",
"831 1422 OFFCURVE",
"591 1422 CURVE SMOOTH"
);
}
);
width = 1250;
}
);
unicode = 0033;
},
{
glyphname = four;
lastChange = "2013-02-25 21:23:55 -0800";
layers = (
{
layerId = "B8795E5A-CEF4-4AEB-A078-6E69DA5AAEE4";
name = Bold;
paths = (
{
closed = 1;
nodes = (
"662 1393 LINE",
"35 484 LINE",
"35 330 LINE",
"679 330 LINE",
"679 0 LINE",
"927 0 LINE",
"927 330 LINE",
"1124 330 LINE",
"1124 516 LINE",
"923 516 LINE",
"923 1393 LINE"
);
},
{
closed = 1;
nodes = (
"682 516 LINE",
"289 516 LINE",
"400 666 OFFCURVE",
"501 812 OFFCURVE",
"608 960 CURVE SMOOTH",
"632 994 OFFCURVE",
"657 1028 OFFCURVE",
"682 1062 CURVE"
);
}
);
width = 1189;
}
);
unicode = 0034;
},
{
glyphname = five;
lastChange = "2013-02-25 21:23:55 -0800";
layers = (
{
layerId = "B8795E5A-CEF4-4AEB-A078-6E69DA5AAEE4";
name = Bold;
paths = (
{
closed = 1;
nodes = (
"214 1398 LINE",
"214 672 LINE",
"453 645 LINE",
"489 695 OFFCURVE",
"561 713 OFFCURVE",
"632 713 CURVE SMOOTH",
"764 713 OFFCURVE",
"839 591 OFFCURVE",
"839 455 CURVE SMOOTH",
"839 273 OFFCURVE",
"714 175 OFFCURVE",
"564 175 CURVE SMOOTH",
"455 175 OFFCURVE",
"332 227 OFFCURVE",
"236 337 CURVE",
"111 163 LINE",
"236 38 OFFCURVE",
"406 -22 OFFCURVE",
"569 -22 CURVE SMOOTH",
"838 -22 OFFCURVE",
"1088 141 OFFCURVE",
"1088 452 CURVE SMOOTH",
"1088 719 OFFCURVE",
"904 919 OFFCURVE",
"676 919 CURVE SMOOTH",
"574 919 OFFCURVE",
"475 898 OFFCURVE",
"417 828 CURVE",
"429 1199 LINE",
"1018 1199 LINE",
"1018 1398 LINE"
);
}
);
width = 1208;
}
);
unicode = 0035;
},
{
glyphname = six;
lastChange = "2013-02-25 21:23:55 -0800";
layers = (
{
layerId = "B8795E5A-CEF4-4AEB-A078-6E69DA5AAEE4";
name = Bold;
paths = (
{
closed = 1;
nodes = (
"321 1426 OFFCURVE",
"120 1084 OFFCURVE",
"120 670 CURVE SMOOTH",
"120 256 OFFCURVE",
"295 -23 OFFCURVE",
"653 -23 CURVE SMOOTH",
"956 -23 OFFCURVE",
"1147 183 OFFCURVE",
"1147 455 CURVE SMOOTH",
"1147 740 OFFCURVE",
"961 921 OFFCURVE",
"678 921 CURVE SMOOTH",
"562 921 OFFCURVE",
"454 878 OFFCURVE",
"375 769 CURVE",
"376 792 OFFCURVE",
"377 816 OFFCURVE",
"380 838 CURVE SMOOTH",
"407 1062 OFFCURVE",
"529 1231 OFFCURVE",
"708 1231 CURVE SMOOTH",
"812 1231 OFFCURVE",
"905 1195 OFFCURVE",
"991 1131 CURVE",
"1071 1304 LINE",
"980 1385 OFFCURVE",
"854 1426 OFFCURVE",
"706 1426 CURVE SMOOTH"
);
},
{
closed = 1;
nodes = (
"817 730 OFFCURVE",
"897 608 OFFCURVE",
"897 452 CURVE SMOOTH",
"897 296 OFFCURVE",
"800 176 OFFCURVE",
"648 176 CURVE SMOOTH",
"517 176 OFFCURVE",
"390 280 OFFCURVE",
"390 456 CURVE SMOOTH",
"390 614 OFFCURVE",
"493 730 OFFCURVE",
"659 730 CURVE SMOOTH"
);
}
);
width = 1242;
}
);
unicode = 0036;
},
{
glyphname = seven;
lastChange = "2013-02-25 21:23:55 -0800";
layers = (
{
layerId = "B8795E5A-CEF4-4AEB-A078-6E69DA5AAEE4";
name = Bold;
paths = (
{
closed = 1;
nodes = (
"65 1393 LINE",
"65 1194 LINE",
"777 1194 LINE",
"236 0 LINE",
"495 0 LINE",
"1056 1272 LINE",
"1056 1393 LINE"
);
}
);
width = 1138;
}
);
unicode = 0037;
},
{
glyphname = eight;
lastChange = "2013-02-25 21:23:55 -0800";
layers = (
{
layerId = "B8795E5A-CEF4-4AEB-A078-6E69DA5AAEE4";
name = Bold;
paths = (
{
closed = 1;
nodes = (
"324 1426 OFFCURVE",
"133 1291 OFFCURVE",
"133 1058 CURVE SMOOTH",
"133 907 OFFCURVE",
"209 802 OFFCURVE",
"345 734 CURVE",
"182 664 OFFCURVE",
"100 536 OFFCURVE",
"100 376 CURVE SMOOTH",
"100 121 OFFCURVE",
"350 -23 OFFCURVE",
"617 -23 CURVE SMOOTH",
"863 -23 OFFCURVE",
"1101 116 OFFCURVE",
"1101 369 CURVE SMOOTH",
"1101 525 OFFCURVE",
"1008 666 OFFCURVE",
"861 731 CURVE",
"998 792 OFFCURVE",
"1069 897 OFFCURVE",
"1069 1050 CURVE SMOOTH",
"1069 1285 OFFCURVE",
"868 1426 OFFCURVE",
"592 1426 CURVE SMOOTH"
);
},
{
closed = 1;
nodes = (
"746 597 OFFCURVE",
"857 506 OFFCURVE",
"857 389 CURVE SMOOTH",
"857 242 OFFCURVE",
"754 176 OFFCURVE",
"603 176 CURVE SMOOTH",
"450 176 OFFCURVE",
"352 250 OFFCURVE",
"352 386 CURVE SMOOTH",
"352 518 OFFCURVE",
"460 599 OFFCURVE",
"608 630 CURVE"
);
},
{
closed = 1;
nodes = (
"723 1235 OFFCURVE",
"825 1167 OFFCURVE",
"825 1058 CURVE SMOOTH",
"825 940 OFFCURVE",
"739 868 OFFCURVE",
"602 832 CURVE",
"463 865 OFFCURVE",
"378 938 OFFCURVE",
"378 1049 CURVE SMOOTH",
"378 1171 OFFCURVE",
"472 1235 OFFCURVE",
"601 1235 CURVE SMOOTH"
);
}
);
width = 1201;
}
);
unicode = 0038;
},
{
glyphname = nine;
lastChange = "2013-02-25 21:23:55 -0800";
layers = (
{
layerId = "B8795E5A-CEF4-4AEB-A078-6E69DA5AAEE4";
name = Bold;
paths = (
{
closed = 1;
nodes = (
"273 1426 OFFCURVE",
"80 1222 OFFCURVE",
"80 955 CURVE SMOOTH",
"80 686 OFFCURVE",
"262 500 OFFCURVE",
"550 500 CURVE SMOOTH",
"666 500 OFFCURVE",
"784 525 OFFCURVE",
"854 629 CURVE",
"852 608 OFFCURVE",
"849 588 OFFCURVE",
"846 568 CURVE SMOOTH",
"810 339 OFFCURVE",
"702 185 OFFCURVE",
"523 185 CURVE SMOOTH",
"429 185 OFFCURVE",
"331 222 OFFCURVE",
"240 298 CURVE",
"152 118 LINE",
"246 28 OFFCURVE",
"378 -23 OFFCURVE",
"523 -23 CURVE SMOOTH",
"895 -23 OFFCURVE",
"1104 289 OFFCURVE",
"1104 741 CURVE SMOOTH",
"1104 1181 OFFCURVE",
"913 1426 OFFCURVE",
"583 1426 CURVE SMOOTH"
);
},
{
closed = 1;
nodes = (
"755 1231 OFFCURVE",
"848 1108 OFFCURVE",
"848 973 CURVE SMOOTH",
"848 788 OFFCURVE",
"732 694 OFFCURVE",
"575 694 CURVE SMOOTH",
"407 694 OFFCURVE",
"328 809 OFFCURVE",
"328 959 CURVE SMOOTH",
"328 1117 OFFCURVE",
"430 1231 OFFCURVE",
"591 1231 CURVE SMOOTH"
);
}
);
width = 1210;
}
);
unicode = 0039;
},
{
glyphname = fraction;
lastChange = "2013-02-25 21:23:55 -0800";
layers = (
{
layerId = "B8795E5A-CEF4-4AEB-A078-6E69DA5AAEE4";
name = Bold;
paths = (
{
closed = 1;
nodes = (
"510 1409 LINE",
"-378 0 LINE",
"-143 0 LINE",
"744 1409 LINE"
);
}
);
width = 368;
}
);
unicode = 2044;
},
{
glyphname = onesuperior;
lastChange = "2013-02-25 21:23:55 -0800";
layers = (
{
layerId = "B8795E5A-CEF4-4AEB-A078-6E69DA5AAEE4";
name = Bold;
paths = (
{
closed = 1;
nodes = (
"381 1385 LINE",
"340 1362 OFFCURVE",
"288 1335 OFFCURVE",
"200 1306 CURVE",
"200 1107 LINE",
"243 1122 OFFCURVE",
"305 1145 OFFCURVE",
"343 1162 CURVE",
"343 742 LINE",
"230 742 LINE",
"230 564 LINE",
"645 564 LINE",
"645 740 LINE",
"530 740 LINE",
"530 1406 LINE"
);
}
);
width = 1190;
}
);
unicode = 00B9;
},
{
glyphname = twosuperior;
lastChange = "2013-02-25 21:23:55 -0800";
layers = (
{
layerId = "B8795E5A-CEF4-4AEB-A078-6E69DA5AAEE4";
name = Bold;
paths = (
{
closed = 1;
nodes = (
"445 1413 OFFCURVE",
"329 1379 OFFCURVE",
"234 1317 CURVE",
"299 1169 LINE",
"374 1215 OFFCURVE",
"466 1247 OFFCURVE",
"536 1247 CURVE SMOOTH",
"600 1247 OFFCURVE",
"646 1221 OFFCURVE",
"646 1156 CURVE SMOOTH",
"646 1093 OFFCURVE",
"588 1000 OFFCURVE",
"245 725 CURVE",
"245 564 LINE",
"829 564 LINE",
"829 741 LINE",
"518 741 LINE",
"686 867 OFFCURVE",
"840 996 OFFCURVE",
"840 1158 CURVE SMOOTH",
"840 1335 OFFCURVE",
"707 1413 OFFCURVE",
"549 1413 CURVE SMOOTH"
);
}
);
width = 1190;
}
);
unicode = 00B2;
},
{
glyphname = threesuperior;
lastChange = "2013-02-25 21:23:55 -0800";
layers = (
{
layerId = "B8795E5A-CEF4-4AEB-A078-6E69DA5AAEE4";
name = Bold;
paths = (
{
closed = 1;
nodes = (
"365 1413 OFFCURVE",
"251 1372 OFFCURVE",
"163 1317 CURVE",
"229 1169 LINE",
"307 1217 OFFCURVE",
"397 1247 OFFCURVE",
"469 1247 CURVE SMOOTH",
"524 1247 OFFCURVE",
"565 1220 OFFCURVE",
"565 1165 CURVE SMOOTH",
"565 1105 OFFCURVE",
"502 1085 OFFCURVE",
"418 1085 CURVE SMOOTH",
"334 1085 LINE",
"334 908 LINE",
"421 908 LINE SMOOTH",
"525 908 OFFCURVE",
"587 883 OFFCURVE",
"587 816 CURVE SMOOTH",
"587 749 OFFCURVE",
"546 713 OFFCURVE",
"483 713 CURVE SMOOTH",
"430 713 OFFCURVE",
"335 730 OFFCURVE",
"239 791 CURVE",
"172 641 LINE",
"269 580 OFFCURVE",
"383 547 OFFCURVE",
"485 547 CURVE SMOOTH",
"648 547 OFFCURVE",
"784 630 OFFCURVE",
"784 813 CURVE SMOOTH",
"784 893 OFFCURVE",
"741 958 OFFCURVE",
"644 1001 CURVE",
"739 1038 OFFCURVE",
"764 1125 OFFCURVE",
"764 1188 CURVE SMOOTH",
"764 1334 OFFCURVE",
"620 1413 OFFCURVE",
"481 1413 CURVE SMOOTH"
);
}
);
width = 1190;
}
);
unicode = 00B3;
},
{
glyphname = foursuperior;
lastChange = "2013-02-25 21:23:55 -0800";
layers = (
{
layerId = "B8795E5A-CEF4-4AEB-A078-6E69DA5AAEE4";
name = Bold;
paths = (
{
closed = 1;
nodes = (
"310 1385 LINE",
"-49 878 LINE",
"-49 750 LINE",
"305 750 LINE",
"305 575 LINE",
"493 575 LINE",
"493 750 LINE",
"609 750 LINE",
"609 898 LINE",
"494 898 LINE",
"494 1385 LINE"
);
},
{
closed = 1;
nodes = (
"303 898 LINE",
"158 898 LINE",
"246 1034 OFFCURVE",
"278 1085 OFFCURVE",
"303 1127 CURVE"
);
}
);
width = 897;
}
);
unicode = 2074;
},
{
glyphname = asterisk;
lastChange = "2013-02-25 21:23:55 -0800";
layers = (
{
layerId = "B8795E5A-CEF4-4AEB-A078-6E69DA5AAEE4";
name = Bold;
paths = (
{
closed = 1;
nodes = (
"404 1444 LINE",
"434 1175 LINE",
"189 1292 LINE",
"109 1120 LINE",
"379 1012 LINE",
"173 783 LINE",
"352 663 LINE",
"515 906 LINE",
"678 663 LINE",
"857 783 LINE",
"651 1012 LINE",
"921 1120 LINE",
"841 1292 LINE",
"596 1175 LINE",
"626 1444 LINE"
);
}
);
width = 1065;
}
);
unicode = 002A;
},
{
glyphname = backslash;
lastChange = "2013-02-25 21:23:55 -0800";
layers = (
{
layerId = "B8795E5A-CEF4-4AEB-A078-6E69DA5AAEE4";
name = Bold;
paths = (
{
closed = 1;
nodes = (
"-115 1424 LINE",
"557 -112 LINE",
"802 -112 LINE",
"134 1424 LINE"
);
}
);
width = 706;
}
);
unicode = 005C;
},
{
glyphname = bullet;
lastChange = "2013-02-25 21:23:55 -0800";
layers = (
{
layerId = "B8795E5A-CEF4-4AEB-A078-6E69DA5AAEE4";
name = Bold;
paths = (
{
closed = 1;
nodes = (
"290 1010 OFFCURVE",
"121 859 OFFCURVE",
"121 683 CURVE SMOOTH",
"121 511 OFFCURVE",
"275 362 OFFCURVE",
"478 362 CURVE SMOOTH",
"669 362 OFFCURVE",
"838 515 OFFCURVE",
"838 690 CURVE SMOOTH",
"838 865 OFFCURVE",
"677 1010 OFFCURVE",
"479 1010 CURVE SMOOTH"
);
}
);
width = 989;
}
);
unicode = 2022;
},
{
glyphname = colon;
lastChange = "2013-02-25 21:23:55 -0800";
layers = (
{
layerId = "B8795E5A-CEF4-4AEB-A078-6E69DA5AAEE4";
name = Bold;
paths = (
{
closed = 1;
nodes = (
"113 1141 LINE",
"113 879 LINE",
"402 879 LINE",
"401 1141 LINE"
);
},
{
closed = 1;
nodes = (
"113 251 LINE",
"113 -11 LINE",
"402 -11 LINE",
"402 251 LINE"
);
}
);
width = 540;
}
);
unicode = 003A;
},
{
glyphname = comma;
lastChange = "2013-02-25 21:23:55 -0800";
layers = (
{
layerId = "B8795E5A-CEF4-4AEB-A078-6E69DA5AAEE4";
name = Bold;
paths = (
{
closed = 1;
nodes = (
"141 259 LINE",
"30 -240 LINE",
"229 -240 LINE",
"406 259 LINE"
);
}
);
width = 540;
}
);
unicode = 002C;
},
{
glyphname = ellipsis;
lastChange = "2013-02-25 21:23:55 -0800";
layers = (
{
layerId = "B8795E5A-CEF4-4AEB-A078-6E69DA5AAEE4";
name = Bold;
paths = (
{
closed = 1;
nodes = (
"645 251 LINE",
"645 -11 LINE",
"935 -11 LINE",
"934 251 LINE"
);
},
{
closed = 1;
nodes = (
"121 251 LINE",
"121 -11 LINE",
"411 -11 LINE",
"410 251 LINE"
);
},
{
closed = 1;
nodes = (
"1169 251 LINE",
"1169 -11 LINE",
"1456 -11 LINE",
"1456 251 LINE"
);
}
);
width = 1620;
}
);
unicode = 2026;
},
{
glyphname = exclam;
lastChange = "2013-02-25 21:23:55 -0800";
layers = (
{
layerId = "B8795E5A-CEF4-4AEB-A078-6E69DA5AAEE4";
name = Bold;
paths = (
{
closed = 1;
nodes = (
"217 1424 LINE",
"287 353 LINE",
"427 353 LINE",
"497 1424 LINE"
);
},
{
closed = 1;
nodes = (
"217 262 LINE",
"217 0 LINE",
"496 0 LINE",
"496 262 LINE"
);
}
);
width = 737;
}
);
unicode = 0021;
},
{
glyphname = numbersign;
lastChange = "2013-02-25 21:23:55 -0800";
layers = (
{
layerId = "B8795E5A-CEF4-4AEB-A078-6E69DA5AAEE4";
name = Bold;
paths = (
{
closed = 1;
nodes = (
"798 1393 LINE",
"730 1010 LINE",
"572 1010 LINE",
"644 1393 LINE",
"419 1393 LINE",
"344 1010 LINE",
"93 1010 LINE",
"73 832 LINE",
"316 832 LINE",
"278 638 LINE",
"30 638 LINE",
"12 454 LINE",
"245 454 LINE",
"165 55 LINE",
"392 55 LINE",
"466 454 LINE",
"624 454 LINE",
"551 55 LINE",
"773 55 LINE",
"851 454 LINE",
"1096 454 LINE",
"1112 638 LINE",
"880 638 LINE",
"916 832 LINE",
"1152 832 LINE",
"1172 1010 LINE",
"952 1010 LINE",
"1026 1393 LINE"
);
},
{
closed = 1;
nodes = (
"658 638 LINE",
"499 638 LINE",
"536 832 LINE",
"694 832 LINE"
);
}
);
width = 1242;
}
);
unicode = 0023;
},
{
glyphname = period;
lastChange = "2013-02-25 21:23:55 -0800";
layers = (
{
layerId = "B8795E5A-CEF4-4AEB-A078-6E69DA5AAEE4";
name = Bold;
paths = (
{
closed = 1;
nodes = (
"119 262 LINE",
"119 0 LINE",
"398 0 LINE",
"398 262 LINE"
);
}
);
width = 540;
}
);
unicode = 002E;
},
{
glyphname = periodcentered;
lastChange = "2013-02-25 21:23:55 -0800";
layers = (
{
layerId = "B8795E5A-CEF4-4AEB-A078-6E69DA5AAEE4";
name = Bold;
paths = (
{
closed = 1;
nodes = (
"79 809 LINE",
"79 547 LINE",
"358 547 LINE",
"358 809 LINE"
);
}
);
width = 444;
}
);
unicode = 00B7;
},
{
glyphname = question;
lastChange = "2013-02-25 21:23:55 -0800";
layers = (
{
layerId = "B8795E5A-CEF4-4AEB-A078-6E69DA5AAEE4";
name = Bold;
paths = (
{
closed = 1;
nodes = (
"378 1454 OFFCURVE",
"260 1429 OFFCURVE",
"144 1380 CURVE",
"144 1168 LINE",
"246 1216 OFFCURVE",
"359 1248 OFFCURVE",
"453 1248 CURVE SMOOTH",
"571 1248 OFFCURVE",
"659 1204 OFFCURVE",
"659 1088 CURVE SMOOTH",
"659 885 OFFCURVE",
"298 772 OFFCURVE",
"298 513 CURVE SMOOTH",
"298 363 LINE",
"523 363 LINE",
"523 384 OFFCURVE",
"522 408 OFFCURVE",
"522 426 CURVE SMOOTH",
"522 478 OFFCURVE",
"525 519 OFFCURVE",
"539 555 CURVE SMOOTH",
"625 769 OFFCURVE",
"900 817 OFFCURVE",
"900 1095 CURVE SMOOTH",
"900 1337 OFFCURVE",
"718 1454 OFFCURVE",
"485 1454 CURVE SMOOTH"
);
},
{
closed = 1;
nodes = (
"272 262 LINE",
"272 0 LINE",
"551 0 LINE",
"551 262 LINE"
);
}
);
width = 1032;
}
);
unicode = 003F;
},
{
glyphname = quotedbl;
lastChange = "2013-02-25 21:23:55 -0800";
layers = (
{
layerId = "B8795E5A-CEF4-4AEB-A078-6E69DA5AAEE4";
name = Bold;
paths = (
{
closed = 1;
nodes = (
"394 1424 LINE",
"445 926 LINE",
"606 926 LINE",
"656 1424 LINE"
);
},
{
closed = 1;
nodes = (
"72 1424 LINE",
"123 926 LINE",
"285 926 LINE",
"332 1424 LINE"
);
}
);
width = 720;
}
);
unicode = 0022;
},
{
glyphname = quotesingle;
lastChange = "2013-02-25 21:23:55 -0800";
layers = (
{
layerId = "B8795E5A-CEF4-4AEB-A078-6E69DA5AAEE4";
name = Bold;
paths = (
{
closed = 1;
nodes = (
"129 1424 LINE",
"168 926 LINE",
"356 926 LINE",
"391 1424 LINE"
);
}
);
width = 554;
}
);
unicode = 0027;
},
{
glyphname = semicolon;
lastChange = "2013-02-25 21:23:55 -0800";
layers = (
{
layerId = "B8795E5A-CEF4-4AEB-A078-6E69DA5AAEE4";
name = Bold;
paths = (
{
closed = 1;
nodes = (
"180 259 LINE",
"72 -240 LINE",
"271 -240 LINE",
"447 259 LINE"
);
},
{
closed = 1;
nodes = (
"178 1141 LINE",
"178 879 LINE",
"425 879 LINE",
"425 1141 LINE"
);
}
);
width = 540;
}
);
unicode = 003B;
},
{
glyphname = slash;
lastChange = "2013-02-25 21:23:55 -0800";
layers = (
{
layerId = "B8795E5A-CEF4-4AEB-A078-6E69DA5AAEE4";
name = Bold;
paths = (
{
closed = 1;
nodes = (
"531 1424 LINE",
"-88 -201 LINE",
"150 -201 LINE",
"774 1424 LINE"
);
}
);
width = 717;
}
);
unicode = 002F;
},
{
glyphname = underscore;
lastChange = "2013-02-25 21:23:55 -0800";
layers = (
{
layerId = "B8795E5A-CEF4-4AEB-A078-6E69DA5AAEE4";
name = Bold;
paths = (
{
closed = 1;
nodes = (
"-33 -71 LINE",
"-33 -257 LINE",
"989 -257 LINE",
"989 -71 LINE"
);
}
);
width = 998;
}
);
unicode = 005F;
},
{
glyphname = braceleft;
lastChange = "2013-02-25 21:23:55 -0800";
layers = (
{
layerId = "B8795E5A-CEF4-4AEB-A078-6E69DA5AAEE4";
name = Bold;
paths = (
{
closed = 1;
nodes = (
"290 1424 OFFCURVE",
"194 1304 OFFCURVE",
"194 1099 CURVE SMOOTH",
"195 1070 OFFCURVE",
"196 1050 OFFCURVE",
"196 1035 CURVE SMOOTH",
"197 1013 OFFCURVE",
"197 992 OFFCURVE",
"197 993 CURVE",
"197 978 LINE SMOOTH",
"197 965 OFFCURVE",
"199 942 OFFCURVE",
"200 896 CURVE",
"197 782 OFFCURVE",
"158 683 OFFCURVE",
"48 673 CURVE",
"51 505 LINE",
"201 492 OFFCURVE",
"195 391 OFFCURVE",
"196 289 CURVE SMOOTH",
"197 42 LINE SMOOTH",
"198 -156 OFFCURVE",
"351 -228 OFFCURVE",
"579 -245 CURVE",
"578 -59 LINE",
"451 -59 OFFCURVE",
"426 -5 OFFCURVE",
"426 232 CURVE SMOOTH",
"426 273 OFFCURVE",
"430 312 OFFCURVE",
"430 312 CURVE",
"407 289 LINE",
"423 281 LINE",
"428 290 OFFCURVE",
"431 306 OFFCURVE",
"431 335 CURVE SMOOTH",
"431 397 OFFCURVE",
"425 523 OFFCURVE",
"337 592 CURVE",
"390 647 OFFCURVE",
"433 734 OFFCURVE",
"435 847 CURVE SMOOTH",
"436 1115 LINE SMOOTH",
"436 1187 OFFCURVE",
"497 1239 OFFCURVE",
"579 1240 CURVE",
"578 1424 LINE"
);
}
);
width = 627;
}
);
unicode = 007B;
},
{
glyphname = braceright;
lastChange = "2013-02-25 21:23:55 -0800";
layers = (
{
layerId = "B8795E5A-CEF4-4AEB-A078-6E69DA5AAEE4";
name = Bold;
paths = (
{
closed = 1;
nodes = (
"54 1425 LINE",
"31 1424 LINE",
"32 1240 LINE",
"108 1239 OFFCURVE",
"171 1231 OFFCURVE",
"172 1107 CURVE SMOOTH",
"172 848 LINE SMOOTH",
"173 698 OFFCURVE",
"244 632 OFFCURVE",
"278 602 CURVE",
"283 596 LINE",
"191 539 OFFCURVE",
"172 459 OFFCURVE",
"172 404 CURVE SMOOTH",
"172 365 OFFCURVE",
"215 345 OFFCURVE",
"220 344 CURVE",
"181 344 LINE",
"182 294 LINE",
"182 255 LINE SMOOTH",
"182 242 OFFCURVE",
"183 229 OFFCURVE",
"183 218 CURVE SMOOTH",
"183 184 LINE SMOOTH",
"183 36 OFFCURVE",
"168 -59 OFFCURVE",
"30 -59 CURVE",
"31 -245 LINE",
"269 -215 OFFCURVE",
"419 -156 OFFCURVE",
"419 40 CURVE",
"416 259 LINE",
"416 310 LINE SMOOTH",
"416 316 OFFCURVE",
"415 323 OFFCURVE",
"415 330 CURVE SMOOTH",
"415 407 OFFCURVE",
"430 486 OFFCURVE",
"562 504 CURVE",
"562 672 LINE",
"471 680 OFFCURVE",
"412 746 OFFCURVE",
"408 864 CURVE",
"410 941 OFFCURVE",
"410 954 OFFCURVE",
"410 967 CURVE SMOOTH",
"410 973 OFFCURVE",
"411 978 OFFCURVE",
"411 989 CURVE SMOOTH",
"411 1002 OFFCURVE",
"412 1026 OFFCURVE",
"413 1069 CURVE SMOOTH",
"413 1278 OFFCURVE",
"355 1425 OFFCURVE",
"81 1425 CURVE SMOOTH"
);
}
);
width = 627;
}
);
unicode = 007D;
},
{
glyphname = bracketleft;
lastChange = "2013-02-25 21:23:55 -0800";
layers = (
{
layerId = "B8795E5A-CEF4-4AEB-A078-6E69DA5AAEE4";
name = Bold;
paths = (
{
closed = 1;
nodes = (
"146 1424 LINE",
"146 -243 LINE",
"566 -243 LINE",
"566 -63 LINE",
"384 -63 LINE",
"384 1244 LINE",
"565 1244 LINE",
"565 1424 LINE"
);
}
);
width = 628;
}
);
unicode = 005B;
},
{
glyphname = bracketright;
lastChange = "2013-02-25 21:23:55 -0800";
layers = (
{
layerId = "B8795E5A-CEF4-4AEB-A078-6E69DA5AAEE4";
name = Bold;
paths = (
{
closed = 1;
nodes = (
"12 1424 LINE",
"52 1244 LINE",
"226 1244 LINE",
"226 -63 LINE",
"47 -63 LINE",
"47 -243 LINE",
"465 -243 LINE",
"465 1424 LINE"
);
}
);
width = 628;
}
);
unicode = 005D;
},
{
glyphname = parenleft;
lastChange = "2013-02-25 21:23:55 -0800";
layers = (
{
layerId = "B8795E5A-CEF4-4AEB-A078-6E69DA5AAEE4";
name = Bold;
paths = (
{
closed = 1;
nodes = (
"389 1424 LINE",
"223 1161 OFFCURVE",
"112 888 OFFCURVE",
"112 583 CURVE SMOOTH",
"112 293 OFFCURVE",
"237 0 OFFCURVE",
"397 -243 CURVE",
"619 -243 LINE",
"460 15 OFFCURVE",
"348 320 OFFCURVE",
"348 581 CURVE SMOOTH",
"348 862 OFFCURVE",
"447 1154 OFFCURVE",
"619 1424 CURVE"
);
}
);
width = 628;
}
);
unicode = 0028;
},
{
glyphname = parenright;
lastChange = "2013-02-25 21:23:55 -0800";
layers = (
{
layerId = "B8795E5A-CEF4-4AEB-A078-6E69DA5AAEE4";
name = Bold;
paths = (
{
closed = 1;
nodes = (
"-10 1424 LINE",
"163 1154 OFFCURVE",
"260 844 OFFCURVE",
"260 602 CURVE SMOOTH",
"260 300 OFFCURVE",
"151 6 OFFCURVE",
"-4 -243 CURVE",
"230 -243 LINE",
"387 11 OFFCURVE",
"494 280 OFFCURVE",
"494 591 CURVE SMOOTH",
"494 879 OFFCURVE",
"377 1178 OFFCURVE",
"215 1424 CURVE"
);
}
);
width = 628;
}
);
unicode = 0029;
},
{
glyphname = emdash;
lastChange = "2013-02-25 21:23:55 -0800";
layers = (
{
layerId = "B8795E5A-CEF4-4AEB-A078-6E69DA5AAEE4";
name = Bold;
paths = (
{
closed = 1;
nodes = (
"-12 653 LINE",
"-12 458 LINE",
"2099 458 LINE",
"2099 653 LINE"
);
}
);
width = 2171;
}
);
unicode = 2014;
},
{
glyphname = endash;
lastChange = "2013-02-25 21:23:55 -0800";
layers = (
{
layerId = "B8795E5A-CEF4-4AEB-A078-6E69DA5AAEE4";
name = Bold;
paths = (
{
closed = 1;
nodes = (
"-30 653 LINE",
"-30 458 LINE",
"1073 458 LINE",
"1073 653 LINE"
);
}
);
width = 1085;
}
);
unicode = 2013;
},
{
glyphname = hyphen;
lastChange = "2013-02-25 21:23:55 -0800";
layers = (
{
layerId = "B8795E5A-CEF4-4AEB-A078-6E69DA5AAEE4";
name = Bold;
paths = (
{
closed = 1;
nodes = (
"44 653 LINE",
"44 458 LINE",
"661 458 LINE",
"661 653 LINE"
);
}
);
width = 728;
}
);
unicode = 002D;
},
{
glyphname = guillemotleft;
lastChange = "2013-02-25 21:23:55 -0800";
layers = (
{
layerId = "B8795E5A-CEF4-4AEB-A078-6E69DA5AAEE4";
name = Bold;
paths = (
{
closed = 1;
nodes = (
"387 921 LINE",
"105 541 LINE",
"381 160 LINE",
"623 160 LINE",
"359 540 LINE",
"634 921 LINE"
);
},
{
closed = 1;
nodes = (
"807 921 LINE",
"525 541 LINE",
"801 160 LINE",
"1042 160 LINE",
"780 540 LINE",
"1050 921 LINE"
);
}
);
width = 1156;
}
);
unicode = 00AB;
},
{
glyphname = guillemotright;
lastChange = "2013-02-25 21:23:55 -0800";
layers = (
{
layerId = "B8795E5A-CEF4-4AEB-A078-6E69DA5AAEE4";
name = Bold;
paths = (
{
closed = 1;
nodes = (
"137 921 LINE",
"400 542 LINE",
"129 160 LINE",
"375 160 LINE",
"657 542 LINE",
"379 921 LINE"
);
},
{
closed = 1;
nodes = (
"513 921 LINE",
"770 544 LINE",
"504 160 LINE",
"744 160 LINE",
"1026 542 LINE",
"749 921 LINE"
);
}
);
width = 1156;
}
);
unicode = 00BB;
},
{
glyphname = guilsinglleft;
lastChange = "2013-02-25 21:23:55 -0800";
layers = (
{
layerId = "B8795E5A-CEF4-4AEB-A078-6E69DA5AAEE4";
name = Bold;
paths = (
{
closed = 1;
nodes = (
"339 921 LINE",
"59 541 LINE",
"335 160 LINE",
"576 160 LINE",
"314 540 LINE",
"583 921 LINE"
);
}
);
width = 642;
}
);
unicode = 2039;
},
{
glyphname = guilsinglright;
lastChange = "2013-02-25 21:23:55 -0800";
layers = (
{
layerId = "B8795E5A-CEF4-4AEB-A078-6E69DA5AAEE4";
name = Bold;
paths = (
{
closed = 1;
nodes = (
"70 921 LINE",
"326 544 LINE",
"59 160 LINE",
"299 160 LINE",
"582 542 LINE",
"304 921 LINE"
);
}
);
width = 642;
}
);
unicode = 203A;
},
{
glyphname = quotedblbase;
lastChange = "2013-02-25 21:23:55 -0800";
layers = (
{
layerId = "B8795E5A-CEF4-4AEB-A078-6E69DA5AAEE4";
name = Bold;
paths = (
{
closed = 1;
nodes = (
"577 253 LINE",
"466 -223 LINE",
"670 -223 LINE",
"837 253 LINE"
);
},
{
closed = 1;
nodes = (
"240 253 LINE",
"130 -223 LINE",
"339 -223 LINE",
"500 253 LINE"
);
}
);
width = 1024;
}
);
unicode = 201E;
},
{
glyphname = quotedblleft;
lastChange = "2013-02-25 21:23:55 -0800";
layers = (
{
layerId = "B8795E5A-CEF4-4AEB-A078-6E69DA5AAEE4";
name = Bold;
paths = (
{
closed = 1;
nodes = (
"359 1436 LINE",
"193 959 LINE",
"454 959 LINE",
"567 1436 LINE"
);
},
{
closed = 1;
nodes = (
"750 1436 LINE",
"603 959 LINE",
"845 959 LINE",
"957 1436 LINE"
);
}
);
width = 1024;
}
);
unicode = 201C;
},
{
glyphname = quotedblright;
lastChange = "2013-02-25 21:23:55 -0800";
layers = (
{
layerId = "B8795E5A-CEF4-4AEB-A078-6E69DA5AAEE4";
name = Bold;
paths = (
{
closed = 1;
nodes = (
"696 1436 LINE",
"584 959 LINE",
"787 959 LINE",
"955 1436 LINE"
);
},
{
closed = 1;
nodes = (
"330 1436 LINE",
"221 959 LINE",
"425 959 LINE",
"592 1436 LINE"
);
}
);
width = 1024;
}
);
unicode = 201D;
},
{
glyphname = quoteleft;
lastChange = "2013-02-25 21:23:55 -0800";
layers = (
{
layerId = "B8795E5A-CEF4-4AEB-A078-6E69DA5AAEE4";
name = Bold;
paths = (
{
closed = 1;
nodes = (
"245 1436 LINE",
"79 959 LINE",
"339 959 LINE",
"449 1436 LINE"
);
}
);
width = 553;
}
);
unicode = 2018;
},
{
glyphname = quoteright;
lastChange = "2013-02-25 21:23:55 -0800";
layers = (
{
layerId = "B8795E5A-CEF4-4AEB-A078-6E69DA5AAEE4";
name = Bold;
paths = (
{
closed = 1;
nodes = (
"199 1436 LINE",
"88 959 LINE",
"291 959 LINE",
"458 1436 LINE"
);
}
);
width = 553;
}
);
unicode = 2019;
},
{
glyphname = quotesinglbase;
lastChange = "2013-02-25 21:23:55 -0800";
layers = (
{
layerId = "B8795E5A-CEF4-4AEB-A078-6E69DA5AAEE4";
name = Bold;
paths = (
{
closed = 1;
nodes = (
"186 253 LINE",
"72 -223 LINE",
"279 -223 LINE",
"445 253 LINE"
);
}
);
width = 553;
}
);
unicode = 201A;
},
{
glyphname = florin;
lastChange = "2013-02-25 21:23:55 -0800";
layers = (
{
layerId = "B8795E5A-CEF4-4AEB-A078-6E69DA5AAEE4";
name = Bold;
paths = (
{
closed = 1;
nodes = (
"716 1338 OFFCURVE",
"666 1138 OFFCURVE",
"662 993 CURVE",
"658 954 OFFCURVE",
"655 910 OFFCURVE",
"651 871 CURVE",
"520 871 LINE",
"520 674 LINE",
"623 674 LINE",
"584 465 OFFCURVE",
"581 410 OFFCURVE",
"579 364 CURVE SMOOTH",
"577 318 OFFCURVE",
"575 289 OFFCURVE",
"511 32 CURVE",
"493 -24 OFFCURVE",
"453 -110 OFFCURVE",
"423 -117 CURVE",
"416 -115 OFFCURVE",
"385 -104 OFFCURVE",
"336 -87 CURVE",
"332 -294 LINE",
"383 -309 OFFCURVE",
"436 -312 OFFCURVE",
"442 -312 CURVE SMOOTH",
"718 -312 OFFCURVE",
"760 -55 OFFCURVE",
"798 187 CURVE SMOOTH",
"805 235 LINE SMOOTH",
"821 334 OFFCURVE",
"836 442 OFFCURVE",
"851 542 CURVE SMOOTH",
"870 674 LINE",
"1043 674 LINE",
"1043 871 LINE",
"903 871 LINE",
"935 1075 LINE",
"939 1112 OFFCURVE",
"965 1135 OFFCURVE",
"1025 1135 CURVE SMOOTH",
"1038 1135 OFFCURVE",
"1089 1126 OFFCURVE",
"1168 1094 CURVE",
"1164 1315 LINE",
"1094 1330 OFFCURVE",
"1009 1338 OFFCURVE",
"981 1338 CURVE SMOOTH"
);
}
);
width = 1634;
}
);
unicode = 0192;
},
{
glyphname = cent;
lastChange = "2013-02-25 21:23:55 -0800";
layers = (
{
layerId = "B8795E5A-CEF4-4AEB-A078-6E69DA5AAEE4";
name = Bold;
paths = (
{
closed = 1;
nodes = (
"553 1250 LINE",
"553 1049 LINE",
"262 1019 OFFCURVE",
"100 784 OFFCURVE",
"100 506 CURVE SMOOTH",
"100 238 OFFCURVE",
"252 10 OFFCURVE",
"553 -19 CURVE",
"553 -236 LINE",
"705 -236 LINE",
"705 -18 LINE",
"812 -6 OFFCURVE",
"906 29 OFFCURVE",
"993 91 CURVE",
"924 273 LINE",
"846 222 OFFCURVE",
"775 189 OFFCURVE",
"705 175 CURVE",
"705 853 LINE",
"767 838 OFFCURVE",
"832 805 OFFCURVE",
"891 751 CURVE",
"995 909 LINE",
"926 980 OFFCURVE",
"824 1029 OFFCURVE",
"705 1046 CURVE",
"705 1250 LINE"
);
},
{
closed = 1;
nodes = (
"553 177 LINE",
"414 212 OFFCURVE",
"345 343 OFFCURVE",
"345 507 CURVE SMOOTH",
"345 672 OFFCURVE",
"422 810 OFFCURVE",
"553 849 CURVE"
);
}
);
width = 1086;
}
);
unicode = 00A2;
},
{
glyphname = currency;
lastChange = "2013-02-25 21:23:55 -0800";
layers = (
{
layerId = "B8795E5A-CEF4-4AEB-A078-6E69DA5AAEE4";
name = Bold;
paths = (
{
closed = 1;
nodes = (
"735 1217 OFFCURVE",
"697 1122 OFFCURVE",
"666 1039 CURVE",
"632 1047 OFFCURVE",
"595 1051 OFFCURVE",
"558 1051 CURVE SMOOTH",
"505 1051 OFFCURVE",
"458 1045 OFFCURVE",
"418 1029 CURVE",
"271 1299 LINE",
"197 1269 LINE",
"245 1180 OFFCURVE",
"297 1086 OFFCURVE",
"345 996 CURVE",
"231 929 OFFCURVE",
"172 800 OFFCURVE",
"172 655 CURVE SMOOTH",
"172 496 OFFCURVE",
"244 360 OFFCURVE",
"383 299 CURVE",
"293 62 LINE",
"364 32 LINE",
"457 274 LINE",
"486 268 OFFCURVE",
"515 266 OFFCURVE",
"552 266 CURVE SMOOTH",
"615 266 OFFCURVE",
"673 279 OFFCURVE",
"723 299 CURVE",
"868 32 LINE",
"937 64 LINE",
"789 337 LINE",
"889 407 OFFCURVE",
"938 529 OFFCURVE",
"938 659 CURVE SMOOTH",
"938 813 OFFCURVE",
"875 943 OFFCURVE",
"741 1010 CURVE",
"841 1271 LINE",
"765 1299 LINE"
);
},
{
closed = 1;
nodes = (
"728 949 OFFCURVE",
"808 814 OFFCURVE",
"808 656 CURVE SMOOTH",
"808 503 OFFCURVE",
"723 365 OFFCURVE",
"557 365 CURVE SMOOTH",
"387 365 OFFCURVE",
"301 500 OFFCURVE",
"301 656 CURVE SMOOTH",
"301 809 OFFCURVE",
"387 949 OFFCURVE",
"553 949 CURVE SMOOTH"
);
}
);
width = 1238;
}
);
unicode = 00A4;
},
{
glyphname = dollar;
lastChange = "2013-02-25 21:23:55 -0800";
layers = (
{
layerId = "B8795E5A-CEF4-4AEB-A078-6E69DA5AAEE4";
name = Bold;
paths = (
{
closed = 1;
nodes = (
"584 1627 LINE",
"584 1480 LINE",
"336 1461 OFFCURVE",
"105 1322 OFFCURVE",
"105 1080 CURVE SMOOTH",
"105 831 OFFCURVE",
"353 722 OFFCURVE",
"584 629 CURVE",
"584 184 LINE",
"577 184 LINE SMOOTH",
"449 184 OFFCURVE",
"278 255 OFFCURVE",
"224 331 CURVE",
"103 166 LINE",
"167 64 OFFCURVE",
"344 -23 OFFCURVE",
"561 -23 CURVE SMOOTH",
"584 -23 LINE",
"584 -215 LINE",
"669 -215 LINE",
"669 -17 LINE",
"910 7 OFFCURVE",
"1138 120 OFFCURVE",
"1138 379 CURVE SMOOTH",
"1138 630 OFFCURVE",
"887 746 OFFCURVE",
"669 835 CURVE",
"669 1275 LINE",
"775 1271 OFFCURVE",
"897 1241 OFFCURVE",
"968 1141 CURVE",
"1102 1296 LINE",
"1034 1435 OFFCURVE",
"838 1479 OFFCURVE",
"669 1483 CURVE",
"669 1627 LINE"
);
},
{
closed = 1;
nodes = (
"784 538 OFFCURVE",
"881 473 OFFCURVE",
"881 383 CURVE SMOOTH",
"881 277 OFFCURVE",
"796 211 OFFCURVE",
"669 191 CURVE",
"669 592 LINE"
);
},
{
closed = 1;
nodes = (
"584 872 LINE",
"462 926 OFFCURVE",
"363 989 OFFCURVE",
"363 1088 CURVE SMOOTH",
"363 1202 OFFCURVE",
"471 1256 OFFCURVE",
"584 1271 CURVE"
);
}
);
width = 1230;
}
);
unicode = 0024;
},
{
glyphname = sterling;
lastChange = "2013-02-25 21:23:55 -0800";
layers = (
{
layerId = "B8795E5A-CEF4-4AEB-A078-6E69DA5AAEE4";
name = Bold;
paths = (
{
closed = 1;
nodes = (
"335 1483 OFFCURVE",
"252 1220 OFFCURVE",
"252 901 CURVE SMOOTH",
"252 838 LINE",
"83 838 LINE",
"83 661 LINE",
"255 661 LINE",
"255 616 LINE SMOOTH",
"255 335 OFFCURVE",
"162 252 OFFCURVE",
"81 179 CURVE",
"84 0 LINE",
"1074 0 LINE",
"1074 195 LINE",
"412 195 LINE",
"484 291 OFFCURVE",
"504 575 OFFCURVE",
"504 661 CURVE",
"808 661 LINE",
"808 838 LINE",
"496 838 LINE",
"492 878 OFFCURVE",
"491 920 OFFCURVE",
"491 955 CURVE SMOOTH",
"491 1195 OFFCURVE",
"573 1290 OFFCURVE",
"753 1290 CURVE SMOOTH",
"848 1290 OFFCURVE",
"929 1263 OFFCURVE",
"1007 1227 CURVE",
"1063 1410 LINE",
"974 1460 OFFCURVE",
"868 1483 OFFCURVE",
"736 1483 CURVE SMOOTH"
);
}
);
width = 1189;
}
);
unicode = 00A3;
},
{
glyphname = yen;
lastChange = "2013-02-25 21:23:55 -0800";
layers = (
{
layerId = "B8795E5A-CEF4-4AEB-A078-6E69DA5AAEE4";
name = Bold;
paths = (
{
closed = 1;
nodes = (
"899 1393 LINE",
"587 852 LINE",
"269 1393 LINE",
"-21 1393 LINE",
"384 722 LINE",
"88 722 LINE",
"88 539 LINE",
"454 539 LINE",
"454 448 LINE",
"88 448 LINE",
"88 271 LINE",
"462 271 LINE",
"462 0 LINE",
"705 0 LINE",
"705 271 LINE",
"1058 271 LINE",
"1058 448 LINE",
"697 448 LINE",
"697 539 LINE",
"1056 539 LINE",
"1056 722 LINE",
"743 722 LINE",
"1168 1393 LINE"
);
}
);
width = 1189;
}
);
unicode = 00A5;
},
{
glyphname = approxequal;
lastChange = "2013-02-25 21:23:55 -0800";
layers = (
{
layerId = "B8795E5A-CEF4-4AEB-A078-6E69DA5AAEE4";
name = Bold;
paths = (
{
closed = 1;
nodes = (
"964 483 OFFCURVE",
"924 422 OFFCURVE",
"866 422 CURVE SMOOTH",
"844 422 OFFCURVE",
"807 441 OFFCURVE",
"768 462 CURVE SMOOTH",
"749 472 OFFCURVE",
"730 481 OFFCURVE",
"707 490 CURVE",
"708 490 LINE",
"628 532 OFFCURVE",
"536 577 OFFCURVE",
"441 577 CURVE SMOOTH",
"278 577 OFFCURVE",
"161 463 OFFCURVE",
"113 283 CURVE",
"303 232 LINE",
"328 335 OFFCURVE",
"373 399 OFFCURVE",
"442 399 CURVE SMOOTH",
"478 399 OFFCURVE",
"537 371 OFFCURVE",
"591 343 CURVE",
"692 283 OFFCURVE",
"780 246 OFFCURVE",
"862 246 CURVE SMOOTH",
"1044 246 OFFCURVE",
"1139 365 OFFCURVE",
"1183 540 CURVE",
"1001 587 LINE"
);
},
{
closed = 1;
nodes = (
"962 829 OFFCURVE",
"922 768 OFFCURVE",
"865 768 CURVE SMOOTH",
"832 768 OFFCURVE",
"771 794 OFFCURVE",
"695 837 CURVE SMOOTH",
"603 892 OFFCURVE",
"530 924 OFFCURVE",
"440 924 CURVE SMOOTH",
"271 924 OFFCURVE",
"152 810 OFFCURVE",
"112 628 CURVE",
"305 587 LINE",
"335 681 OFFCURVE",
"375 750 OFFCURVE",
"437 750 CURVE SMOOTH",
"480 750 OFFCURVE",
"531 722 OFFCURVE",
"587 688 CURVE SMOOTH",
"694 623 OFFCURVE",
"768 596 OFFCURVE",
"861 596 CURVE SMOOTH",
"1039 596 OFFCURVE",
"1140 711 OFFCURVE",
"1182 890 CURVE",
"1000 933 LINE"
);
}
);
width = 1351;
}
);
unicode = 2248;
},
{
glyphname = asciitilde;
lastChange = "2013-02-25 21:23:55 -0800";
layers = (
{
layerId = "B8795E5A-CEF4-4AEB-A078-6E69DA5AAEE4";
name = Bold;
paths = (
{
closed = 1;
nodes = (
"1026 663 OFFCURVE",
"976 576 OFFCURVE",
"916 576 CURVE SMOOTH",
"887 576 OFFCURVE",
"838 599 OFFCURVE",
"785 623 CURVE",
"765 633 LINE SMOOTH",
"675 675 OFFCURVE",
"566 726 OFFCURVE",
"479 726 CURVE SMOOTH",
"301 726 OFFCURVE",
"182 583 OFFCURVE",
"152 431 CURVE",
"335 343 LINE",
"359 438 OFFCURVE",
"409 535 OFFCURVE",
"485 535 CURVE SMOOTH",
"530 535 OFFCURVE",
"595 504 OFFCURVE",
"664 474 CURVE",
"687 463 LINE SMOOTH",
"769 421 OFFCURVE",
"854 383 OFFCURVE",
"918 383 CURVE SMOOTH",
"1092 383 OFFCURVE",
"1208 515 OFFCURVE",
"1247 693 CURVE",
"1047 754 LINE"
);
}
);
width = 1458;
}
);
unicode = 007E;
},
{
glyphname = divide;
lastChange = "2013-02-25 21:23:55 -0800";
layers = (
{
layerId = "B8795E5A-CEF4-4AEB-A078-6E69DA5AAEE4";
name = Bold;
paths = (
{
closed = 1;
nodes = (
"166 651 LINE",
"166 454 LINE",
"1229 454 LINE",
"1229 651 LINE"
);
},
{
closed = 1;
nodes = (
"558 250 LINE",
"558 -13 LINE",
"846 -13 LINE",
"845 250 LINE"
);
},
{
closed = 1;
nodes = (
"555 1107 LINE",
"555 845 LINE",
"842 845 LINE",
"842 1107 LINE"
);
}
);
width = 1458;
}
);
unicode = 00F7;
},
{
glyphname = equal;
lastChange = "2013-02-25 21:23:55 -0800";
layers = (
{
layerId = "B8795E5A-CEF4-4AEB-A078-6E69DA5AAEE4";
name = Bold;
paths = (
{
closed = 1;
nodes = (
"166 838 LINE",
"166 646 LINE",
"1231 646 LINE",
"1231 838 LINE"
);
},
{
closed = 1;
nodes = (
"166 458 LINE",
"166 267 LINE",
"1233 267 LINE",
"1233 458 LINE"
);
}
);
width = 1458;
}
);
unicode = 003D;
},
{
glyphname = greater;
lastChange = "2013-02-25 21:23:55 -0800";
layers = (
{
layerId = "B8795E5A-CEF4-4AEB-A078-6E69DA5AAEE4";
name = Bold;
paths = (
{
closed = 1;
nodes = (
"186 883 LINE",
"456 756 LINE SMOOTH",
"599 689 OFFCURVE",
"737 625 OFFCURVE",
"877 557 CURVE",
"181 251 LINE",
"181 30 LINE",
"1214 486 LINE",
"1214 605 LINE",
"186 1099 LINE"
);
}
);
width = 1458;
}
);
unicode = 003E;
},
{
glyphname = greaterequal;
lastChange = "2013-02-25 21:23:55 -0800";
layers = (
{
layerId = "B8795E5A-CEF4-4AEB-A078-6E69DA5AAEE4";
name = Bold;
paths = (
{
closed = 1;
nodes = (
"182 967 LINE",
"899 697 LINE",
"193 464 LINE",
"176 255 LINE",
"1164 639 LINE",
"1164 747 LINE",
"199 1168 LINE"
);
},
{
closed = 1;
nodes = (
"163 185 LINE",
"163 9 LINE",
"1143 9 LINE",
"1160 185 LINE"
);
}
);
width = 1351;
}
);
unicode = 2265;
},
{
glyphname = increment;
lastChange = "2013-02-25 21:23:55 -0800";
layers = (
{
layerId = "B8795E5A-CEF4-4AEB-A078-6E69DA5AAEE4";
name = Bold;
paths = (
{
closed = 1;
nodes = (
"514 1402 LINE",
"10 103 LINE",
"10 0 LINE",
"1241 0 LINE",
"1241 103 LINE",
"738 1402 LINE"
);
},
{
closed = 1;
nodes = (
"718 740 OFFCURVE",
"811 490 OFFCURVE",
"913 216 CURVE",
"332 216 LINE",
"427 486 OFFCURVE",
"521 745 OFFCURVE",
"616 1016 CURVE"
);
},
{
closed = 1;
nodes = (
"635 1070 LINE",
"616 1018 LINE",
"592 1085 LINE",
"630 1094 LINE"
);
}
);
width = 1309;
}
);
unicode = 2206;
},
{
glyphname = integral;
lastChange = "2013-02-25 21:23:55 -0800";
layers = (
{
layerId = "B8795E5A-CEF4-4AEB-A078-6E69DA5AAEE4";
name = Bold;
paths = (
{
closed = 1;
nodes = (
"567 1699 OFFCURVE",
"476 1536 OFFCURVE",
"476 1316 CURVE SMOOTH",
"477 -49 LINE SMOOTH",
"477 -161 OFFCURVE",
"461 -222 OFFCURVE",
"369 -222 CURVE SMOOTH",
"340 -222 OFFCURVE",
"279 -217 OFFCURVE",
"225 -194 CURVE",
"230 -385 LINE",
"295 -400 OFFCURVE",
"345 -411 OFFCURVE",
"397 -411 CURVE SMOOTH",
"628 -411 OFFCURVE",
"715 -249 OFFCURVE",
"715 -29 CURVE",
"714 1337 LINE",
"714 1449 OFFCURVE",
"730 1509 OFFCURVE",
"826 1509 CURVE SMOOTH",
"853 1509 OFFCURVE",
"910 1505 OFFCURVE",
"969 1478 CURVE",
"965 1674 LINE",
"906 1686 LINE SMOOTH",
"869 1693 OFFCURVE",
"838 1699 OFFCURVE",
"796 1699 CURVE SMOOTH"
);
}
);
width = 702;
}
);
unicode = 222B;
},
{
glyphname = less;
lastChange = "2013-02-25 21:23:55 -0800";
layers = (
{
layerId = "B8795E5A-CEF4-4AEB-A078-6E69DA5AAEE4";
name = Bold;
paths = (
{
closed = 1;
nodes = (
"184 606 LINE",
"184 495 LINE",
"1211 23 LINE",
"1211 236 LINE",
"1102 284 OFFCURVE",
"959 350 OFFCURVE",
"849 398 CURVE SMOOTH",
"510 550 LINE",
"1215 871 LINE",
"1215 1088 LINE"
);
}
);
width = 1458;
}
);
unicode = 003C;
},
{
glyphname = lessequal;
lastChange = "2013-02-25 21:23:55 -0800";
layers = (
{
layerId = "B8795E5A-CEF4-4AEB-A078-6E69DA5AAEE4";
name = Bold;
paths = (
{
closed = 1;
nodes = (
"163 747 LINE",
"163 639 LINE",
"1151 255 LINE",
"1134 464 LINE",
"428 697 LINE",
"1145 967 LINE",
"1128 1168 LINE"
);
},
{
closed = 1;
nodes = (
"167 185 LINE",
"184 9 LINE",
"1164 9 LINE",
"1164 185 LINE"
);
}
);
width = 1351;
}
);
unicode = 2264;
},
{
glyphname = logicalnot;
lastChange = "2013-02-25 21:23:55 -0800";
layers = (
{
layerId = "B8795E5A-CEF4-4AEB-A078-6E69DA5AAEE4";
name = Bold;
paths = (
{
closed = 1;
nodes = (
"169 812 LINE",
"169 616 LINE",
"1011 616 LINE",
"1011 223 LINE",
"1232 223 LINE",
"1232 812 LINE"
);
}
);
width = 1458;
}
);
unicode = 00AC;
},
{
glyphname = micro;
lastChange = "2013-02-25 21:23:55 -0800";
layers = (
{
layerId = "B8795E5A-CEF4-4AEB-A078-6E69DA5AAEE4";
name = Bold;
paths = (
{
closed = 1;
nodes = (
"843 1026 LINE",
"843 438 LINE SMOOTH",
"843 249 OFFCURVE",
"735 128 OFFCURVE",
"577 128 CURVE SMOOTH",
"434 128 OFFCURVE",
"332 228 OFFCURVE",
"332 392 CURVE SMOOTH",
"332 396 LINE SMOOTH",
"332 397 OFFCURVE",
"333 398 OFFCURVE",
"333 399 CURVE SMOOTH",
"334 1026 LINE",
"163 1026 LINE",
"163 -395 LINE",
"332 -395 LINE",
"344 76 LINE",
"395 14 OFFCURVE",
"470 -23 OFFCURVE",
"569 -23 CURVE SMOOTH",
"696 -23 OFFCURVE",
"784 29 OFFCURVE",
"843 132 CURVE",
"849 76 OFFCURVE",
"861 32 OFFCURVE",
"874 5 CURVE",
"883 0 LINE",
"1050 0 LINE",
"1021 67 OFFCURVE",
"1014 156 OFFCURVE",
"1014 267 CURVE SMOOTH",
"1014 1026 LINE"
);
}
);
width = 1182;
}
);
unicode = 00B5;
},
{
glyphname = minus;
lastChange = "2013-02-25 21:23:55 -0800";
layers = (
{
layerId = "B8795E5A-CEF4-4AEB-A078-6E69DA5AAEE4";
name = Bold;
paths = (
{
closed = 1;
nodes = (
"165 507 LINE",
"165 315 LINE",
"1230 315 LINE",
"1230 507 LINE"
);
}
);
width = 1458;
}
);
unicode = 2212;
},
{
glyphname = multiply;
lastChange = "2013-02-25 21:23:55 -0800";
layers = (
{
layerId = "B8795E5A-CEF4-4AEB-A078-6E69DA5AAEE4";
name = Bold;
paths = (
{
closed = 1;
nodes = (
"318 856 LINE",
"553 552 LINE",
"277 249 LINE",
"423 98 LINE",
"495 177 OFFCURVE",
"580 270 OFFCURVE",
"653 349 CURVE SMOOTH",
"665 360 OFFCURVE",
"681 379 OFFCURVE",
"693 392 CURVE",
"921 96 LINE",
"1084 251 LINE",
"1006 349 OFFCURVE",
"921 455 OFFCURVE",
"842 552 CURVE",
"1117 854 LINE",
"972 1003 LINE",
"704 710 LINE",
"474 1005 LINE"
);
}
);
width = 1458;
}
);
unicode = 00D7;
},
{
glyphname = notequal;
lastChange = "2013-02-25 21:23:55 -0800";
layers = (
{
layerId = "B8795E5A-CEF4-4AEB-A078-6E69DA5AAEE4";
name = Bold;
paths = (
{
closed = 1;
nodes = (
"674 860 LINE",
"105 860 LINE",
"143 681 LINE",
"588 681 LINE",
"484 482 LINE",
"105 482 LINE",
"141 304 LINE",
"393 304 LINE",
"280 66 LINE",
"476 37 LINE",
"608 304 LINE",
"1194 304 LINE",
"1158 482 LINE",
"696 482 LINE",
"803 681 LINE",
"1194 681 LINE",
"1158 860 LINE",
"888 860 LINE",
"1004 1094 LINE",
"802 1122 LINE"
);
}
);
width = 1351;
}
);
unicode = 2260;
},
{
glyphname = partialdiff;
lastChange = "2013-02-25 21:23:55 -0800";
layers = (
{
layerId = "B8795E5A-CEF4-4AEB-A078-6E69DA5AAEE4";
name = Bold;
paths = (
{
closed = 1;
nodes = (
"447 1501 OFFCURVE",
"324 1461 OFFCURVE",
"237 1398 CURVE",
"251 1186 LINE",
"353 1254 OFFCURVE",
"469 1312 OFFCURVE",
"549 1312 CURVE SMOOTH",
"715 1312 OFFCURVE",
"814 1170 OFFCURVE",
"820 929 CURVE",
"711 1005 OFFCURVE",
"622 1002 OFFCURVE",
"566 1002 CURVE SMOOTH",
"280 1002 OFFCURVE",
"53 749 OFFCURVE",
"53 427 CURVE SMOOTH",
"53 172 OFFCURVE",
"199 -24 OFFCURVE",
"481 -24 CURVE SMOOTH",
"877 -24 OFFCURVE",
"1065 407 OFFCURVE",
"1065 828 CURVE SMOOTH",
"1065 1294 OFFCURVE",
"875 1501 OFFCURVE",
"565 1501 CURVE SMOOTH"
);
},
{
closed = 1;
nodes = (
"686 815 OFFCURVE",
"769 731 OFFCURVE",
"806 646 CURVE",
"762 406 OFFCURVE",
"639 169 OFFCURVE",
"481 169 CURVE SMOOTH",
"365 169 OFFCURVE",
"294 270 OFFCURVE",
"294 423 CURVE SMOOTH",
"294 633 OFFCURVE",
"422 815 OFFCURVE",
"589 815 CURVE SMOOTH"
);
}
);
width = 1167;
}
);
unicode = 2202;
},
{
glyphname = percent;
lastChange = "2013-02-25 21:23:55 -0800";
layers = (
{
layerId = "B8795E5A-CEF4-4AEB-A078-6E69DA5AAEE4";
name = Bold;
paths = (
{
closed = 1;
nodes = (
"1314 1409 LINE",
"406 -5 LINE",
"600 -5 LINE",
"1509 1409 LINE"
);
},
{
closed = 1;
nodes = (
"632 1260 OFFCURVE",
"678 1148 OFFCURVE",
"678 1031 CURVE SMOOTH",
"678 904 OFFCURVE",
"625 803 OFFCURVE",
"516 803 CURVE SMOOTH",
"407 803 OFFCURVE",
"354 904 OFFCURVE",
"354 1031 CURVE SMOOTH",
"354 1148 OFFCURVE",
"400 1260 OFFCURVE",
"516 1260 CURVE SMOOTH"
);
},
{
closed = 1;
nodes = (
"291 1410 OFFCURVE",
"153 1240 OFFCURVE",
"153 1031 CURVE SMOOTH",
"153 815 OFFCURVE",
"292 653 OFFCURVE",
"516 653 CURVE SMOOTH",
"740 653 OFFCURVE",
"879 815 OFFCURVE",
"879 1031 CURVE SMOOTH",
"879 1240 OFFCURVE",
"741 1410 OFFCURVE",
"516 1410 CURVE SMOOTH"
);
},
{
closed = 1;
nodes = (
"1506 580 OFFCURVE",
"1552 468 OFFCURVE",
"1552 351 CURVE SMOOTH",
"1552 224 OFFCURVE",
"1499 123 OFFCURVE",
"1390 123 CURVE SMOOTH",
"1281 123 OFFCURVE",
"1228 224 OFFCURVE",
"1228 351 CURVE SMOOTH",
"1228 468 OFFCURVE",
"1274 580 OFFCURVE",
"1390 580 CURVE SMOOTH"
);
},
{
closed = 1;
nodes = (
"1165 730 OFFCURVE",
"1027 560 OFFCURVE",
"1027 351 CURVE SMOOTH",
"1027 135 OFFCURVE",
"1166 -27 OFFCURVE",
"1390 -27 CURVE SMOOTH",
"1614 -27 OFFCURVE",
"1753 135 OFFCURVE",
"1753 351 CURVE SMOOTH",
"1753 560 OFFCURVE",
"1615 730 OFFCURVE",
"1390 730 CURVE SMOOTH"
);
}
);
width = 1985;
}
);
unicode = 0025;
},
{
glyphname = perthousand;
lastChange = "2013-02-25 21:23:55 -0800";
layers = (
{
layerId = "B8795E5A-CEF4-4AEB-A078-6E69DA5AAEE4";
name = Bold;
paths = (
{
closed = 1;
nodes = (
"1226 1393 LINE",
"318 -21 LINE",
"512 -21 LINE",
"1421 1393 LINE"
);
},
{
closed = 1;
nodes = (
"544 1244 OFFCURVE",
"590 1132 OFFCURVE",
"590 1015 CURVE SMOOTH",
"590 888 OFFCURVE",
"537 787 OFFCURVE",
"428 787 CURVE SMOOTH",
"319 787 OFFCURVE",
"266 888 OFFCURVE",
"266 1015 CURVE SMOOTH",
"266 1132 OFFCURVE",
"312 1244 OFFCURVE",
"428 1244 CURVE SMOOTH"
);
},
{
closed = 1;
nodes = (
"203 1394 OFFCURVE",
"65 1224 OFFCURVE",
"65 1015 CURVE SMOOTH",
"65 799 OFFCURVE",
"204 637 OFFCURVE",
"428 637 CURVE SMOOTH",
"652 637 OFFCURVE",
"791 799 OFFCURVE",
"791 1015 CURVE SMOOTH",
"791 1224 OFFCURVE",
"653 1394 OFFCURVE",
"428 1394 CURVE SMOOTH"
);
},
{
closed = 1;
nodes = (
"1418 564 OFFCURVE",
"1464 452 OFFCURVE",
"1464 335 CURVE SMOOTH",
"1464 208 OFFCURVE",
"1411 107 OFFCURVE",
"1302 107 CURVE SMOOTH",
"1193 107 OFFCURVE",
"1140 208 OFFCURVE",
"1140 335 CURVE SMOOTH",
"1140 452 OFFCURVE",
"1186 564 OFFCURVE",
"1302 564 CURVE SMOOTH"
);
},
{
closed = 1;
nodes = (
"1077 714 OFFCURVE",
"939 544 OFFCURVE",
"939 335 CURVE SMOOTH",
"939 119 OFFCURVE",
"1078 -43 OFFCURVE",
"1302 -43 CURVE SMOOTH",
"1526 -43 OFFCURVE",
"1665 119 OFFCURVE",
"1665 335 CURVE SMOOTH",
"1665 544 OFFCURVE",
"1527 714 OFFCURVE",
"1302 714 CURVE SMOOTH"
);
},
{
closed = 1;
nodes = (
"2241 564 OFFCURVE",
"2287 452 OFFCURVE",
"2287 335 CURVE SMOOTH",
"2287 208 OFFCURVE",
"2234 107 OFFCURVE",
"2125 107 CURVE SMOOTH",
"2016 107 OFFCURVE",
"1963 208 OFFCURVE",
"1963 335 CURVE SMOOTH",
"1963 452 OFFCURVE",
"2009 564 OFFCURVE",
"2125 564 CURVE SMOOTH"
);
},
{
closed = 1;
nodes = (
"1900 714 OFFCURVE",
"1762 544 OFFCURVE",
"1762 335 CURVE SMOOTH",
"1762 119 OFFCURVE",
"1901 -43 OFFCURVE",
"2125 -43 CURVE SMOOTH",
"2349 -43 OFFCURVE",
"2488 119 OFFCURVE",
"2488 335 CURVE SMOOTH",
"2488 544 OFFCURVE",
"2350 714 OFFCURVE",
"2125 714 CURVE SMOOTH"
);
}
);
width = 2386;
}
);
unicode = 2030;
},
{
glyphname = plus;
lastChange = "2013-02-25 21:23:55 -0800";
layers = (
{
layerId = "B8795E5A-CEF4-4AEB-A078-6E69DA5AAEE4";
name = Bold;
paths = (
{
closed = 1;
nodes = (
"588 1047 LINE",
"588 651 LINE",
"166 651 LINE",
"166 454 LINE",
"586 454 LINE",
"586 57 LINE",
"807 57 LINE",
"807 454 LINE",
"1229 454 LINE",
"1229 651 LINE",
"808 651 LINE",
"808 1047 LINE"
);
}
);
width = 1458;
}
);
unicode = 002B;
},
{
glyphname = plusminus;
lastChange = "2013-02-25 21:23:55 -0800";
layers = (
{
layerId = "B8795E5A-CEF4-4AEB-A078-6E69DA5AAEE4";
name = Bold;
paths = (
{
closed = 1;
nodes = (
"581 1062 LINE",
"581 749 LINE",
"229 749 LINE",
"229 557 LINE",
"586 557 LINE",
"586 249 LINE",
"814 249 LINE",
"814 557 LINE",
"1168 557 LINE",
"1168 749 LINE",
"805 749 LINE",
"805 1062 LINE"
);
},
{
closed = 1;
nodes = (
"227 192 LINE",
"227 0 LINE",
"1174 0 LINE",
"1174 192 LINE"
);
}
);
width = 1458;
}
);
unicode = 00B1;
},
{
glyphname = product;
lastChange = "2013-02-25 21:23:55 -0800";
layers = (
{
layerId = "B8795E5A-CEF4-4AEB-A078-6E69DA5AAEE4";
name = Bold;
paths = (
{
closed = 1;
nodes = (
"59 1396 LINE",
"93 1203 LINE",
"217 1203 LINE",
"217 -308 LINE",
"476 -308 LINE",
"476 1203 LINE",
"1053 1203 LINE",
"1053 -308 LINE",
"1319 -308 LINE",
"1319 1203 LINE",
"1411 1203 LINE",
"1446 1396 LINE"
);
}
);
width = 1568;
}
);
unicode = 220F;
},
{
glyphname = radical;
lastChange = "2013-02-25 21:23:55 -0800";
layers = (
{
layerId = "B8795E5A-CEF4-4AEB-A078-6E69DA5AAEE4";
name = Bold;
paths = (
{
closed = 1;
nodes = (
"996 1560 LINE",
"643 260 LINE",
"637 231 LINE",
"633 243 LINE",
"408 841 LINE",
"49 783 LINE",
"90 613 LINE",
"240 640 LINE",
"243 640 OFFCURVE",
"249 642 OFFCURVE",
"252 643 CURVE",
"561 -144 LINE",
"756 -144 LINE",
"1210 1560 LINE"
);
}
);
width = 1314;
}
);
unicode = 221A;
},
{
glyphname = summation;
lastChange = "2013-02-25 21:23:55 -0800";
layers = (
{
layerId = "B8795E5A-CEF4-4AEB-A078-6E69DA5AAEE4";
name = Bold;
paths = (
{
closed = 1;
nodes = (
"50 1396 LINE",
"50 1272 LINE",
"622 553 LINE",
"28 -180 LINE",
"28 -308 LINE",
"1206 -308 LINE",
"1206 -105 LINE",
"381 -105 LINE",
"909 556 LINE",
"397 1200 LINE",
"1163 1200 LINE",
"1163 1396 LINE"
);
}
);
width = 1264;
}
);
unicode = 2211;
},
{
glyphname = ampersand;
lastChange = "2013-02-25 21:23:55 -0800";
layers = (
{
layerId = "B8795E5A-CEF4-4AEB-A078-6E69DA5AAEE4";
name = Bold;
paths = (
{
closed = 1;
nodes = (
"437 1444 OFFCURVE",
"265 1341 OFFCURVE",
"265 1139 CURVE SMOOTH",
"265 1020 OFFCURVE",
"329 940 OFFCURVE",
"430 838 CURVE",
"250 740 OFFCURVE",
"90 623 OFFCURVE",
"90 412 CURVE SMOOTH",
"90 136 OFFCURVE",
"329 -27 OFFCURVE",
"640 -27 CURVE SMOOTH",
"842 -27 OFFCURVE",
"1003 55 OFFCURVE",
"1117 156 CURVE",
"1222 54 OFFCURVE",
"1291 4 OFFCURVE",
"1435 -17 CURVE",
"1624 129 LINE",
"1426 172 OFFCURVE",
"1367 196 OFFCURVE",
"1264 296 CURVE",
"1376 451 OFFCURVE",
"1447 672 OFFCURVE",
"1447 874 CURVE",
"1214 919 LINE",
"1214 753 OFFCURVE",
"1180 596 OFFCURVE",
"1100 462 CURVE",
"769 795 LINE",
"914 880 OFFCURVE",
"1039 998 OFFCURVE",
"1039 1145 CURVE SMOOTH",
"1039 1350 OFFCURVE",
"842 1444 OFFCURVE",
"644 1444 CURVE SMOOTH"
);
},
{
closed = 1;
nodes = (
"967 304 LINE",
"882 231 OFFCURVE",
"783 173 OFFCURVE",
"641 173 CURVE SMOOTH",
"469 173 OFFCURVE",
"343 273 OFFCURVE",
"343 413 CURVE SMOOTH",
"343 551 OFFCURVE",
"452 627 OFFCURVE",
"573 691 CURVE"
);
},
{
closed = 1;
nodes = (
"719 1254 OFFCURVE",
"794 1224 OFFCURVE",
"794 1136 CURVE SMOOTH",
"794 1053 OFFCURVE",
"714 989 OFFCURVE",
"619 934 CURVE",
"552 997 OFFCURVE",
"511 1059 OFFCURVE",
"511 1134 CURVE SMOOTH",
"511 1217 OFFCURVE",
"574 1254 OFFCURVE",
"654 1254 CURVE SMOOTH"
);
}
);
width = 1647;
}
);
unicode = 0026;
},
{
glyphname = asciicircum;
lastChange = "2013-02-25 21:23:55 -0800";
layers = (
{
layerId = "B8795E5A-CEF4-4AEB-A078-6E69DA5AAEE4";
name = Bold;
paths = (
{
closed = 1;
nodes = (
"615 1405 LINE",
"128 517 LINE",
"369 517 LINE",
"450 679 OFFCURVE",
"543 860 OFFCURVE",
"630 1027 CURVE SMOOTH",
"647 1062 OFFCURVE",
"669 1103 OFFCURVE",
"688 1138 CURVE",
"1023 517 LINE",
"1260 517 LINE",
"767 1405 LINE"
);
}
);
width = 1457;
}
);
unicode = 005E;
},
{
glyphname = at;
lastChange = "2013-02-25 21:23:55 -0800";
layers = (
{
layerId = "B8795E5A-CEF4-4AEB-A078-6E69DA5AAEE4";
name = Bold;
paths = (
{
closed = 1;
nodes = (
"468 1447 OFFCURVE",
"99 1110 OFFCURVE",
"99 671 CURVE SMOOTH",
"99 229 OFFCURVE",
"440 -102 OFFCURVE",
"918 -102 CURVE SMOOTH",
"1128 -102 OFFCURVE",
"1328 -36 OFFCURVE",
"1487 80 CURVE",
"1417 180 LINE",
"1267 91 OFFCURVE",
"1098 45 OFFCURVE",
"936 45 CURVE SMOOTH",
"600 45 OFFCURVE",
"293 242 OFFCURVE",
"293 652 CURVE SMOOTH",
"293 1089 OFFCURVE",
"636 1308 OFFCURVE",
"962 1308 CURVE SMOOTH",
"1255 1308 OFFCURVE",
"1533 1131 OFFCURVE",
"1533 778 CURVE SMOOTH",
"1533 543 OFFCURVE",
"1397 333 OFFCURVE",
"1244 333 CURVE SMOOTH",
"1217 333 OFFCURVE",
"1209 357 OFFCURVE",
"1209 380 CURVE SMOOTH",
"1209 421 OFFCURVE",
"1229 498 OFFCURVE",
"1253 618 CURVE SMOOTH",
"1347 1090 LINE",
"1139 1090 LINE",
"1117 960 LINE",
"1085 1080 OFFCURVE",
"1005 1132 OFFCURVE",
"911 1132 CURVE SMOOTH",
"714 1132 OFFCURVE",
"455 910 OFFCURVE",
"455 606 CURVE SMOOTH",
"455 366 OFFCURVE",
"618 248 OFFCURVE",
"777 248 CURVE SMOOTH",
"896 248 OFFCURVE",
"1013 321 OFFCURVE",
"1069 472 CURVE",
"1065 447 OFFCURVE",
"1063 425 OFFCURVE",
"1063 404 CURVE SMOOTH",
"1063 254 OFFCURVE",
"1167 211 OFFCURVE",
"1239 211 CURVE SMOOTH",
"1505 211 OFFCURVE",
"1690 517 OFFCURVE",
"1690 772 CURVE SMOOTH",
"1690 1169 OFFCURVE",
"1359 1447 OFFCURVE",
"938 1447 CURVE SMOOTH"
);
},
{
closed = 1;
nodes = (
"1027 943 OFFCURVE",
"1056 891 OFFCURVE",
"1056 801 CURVE SMOOTH",
"1056 612 OFFCURVE",
"950 426 OFFCURVE",
"808 426 CURVE SMOOTH",
"728 426 OFFCURVE",
"685 486 OFFCURVE",
"685 576 CURVE SMOOTH",
"685 739 OFFCURVE",
"794 943 OFFCURVE",
"949 943 CURVE SMOOTH"
);
}
);
width = 1895;
}
);
unicode = 0040;
},
{
glyphname = bar;
lastChange = "2013-02-25 21:23:55 -0800";
layers = (
{
layerId = "B8795E5A-CEF4-4AEB-A078-6E69DA5AAEE4";
name = Bold;
paths = (
{
closed = 1;
nodes = (
"123 1512 LINE",
"123 -460 LINE",
"348 -460 LINE",
"348 1512 LINE"
);
}
);
width = 500;
}
);
unicode = 007C;
},
{
glyphname = brokenbar;
lastChange = "2013-02-25 21:23:55 -0800";
layers = (
{
layerId = "B8795E5A-CEF4-4AEB-A078-6E69DA5AAEE4";
name = Bold;
paths = (
{
closed = 1;
nodes = (
"121 1512 LINE",
"121 581 LINE",
"348 581 LINE",
"348 1512 LINE"
);
},
{
closed = 1;
nodes = (
"123 412 LINE",
"123 -460 LINE",
"350 -460 LINE",
"350 412 LINE"
);
}
);
width = 500;
}
);
unicode = 00A6;
},
{
glyphname = copyright;
lastChange = "2013-02-25 21:23:55 -0800";
layers = (
{
layerId = "B8795E5A-CEF4-4AEB-A078-6E69DA5AAEE4";
name = Bold;
paths = (
{
closed = 1;
nodes = (
"437 1483 OFFCURVE",
"72 1141 OFFCURVE",
"72 733 CURVE SMOOTH",
"72 321 OFFCURVE",
"431 -23 OFFCURVE",
"885 -23 CURVE SMOOTH",
"1328 -23 OFFCURVE",
"1691 319 OFFCURVE",
"1691 730 CURVE SMOOTH",
"1691 1136 OFFCURVE",
"1328 1483 OFFCURVE",
"877 1483 CURVE SMOOTH"
);
},
{
closed = 1;
nodes = (
"653 1157 OFFCURVE",
"443 989 OFFCURVE",
"443 722 CURVE SMOOTH",
"443 455 OFFCURVE",
"653 287 OFFCURVE",
"900 287 CURVE SMOOTH",
"996 287 OFFCURVE",
"1098 314 OFFCURVE",
"1196 374 CURVE",
"1145 525 LINE",
"1059 478 OFFCURVE",
"981 458 OFFCURVE",
"914 458 CURVE SMOOTH",
"751 458 OFFCURVE",
"651 576 OFFCURVE",
"651 722 CURVE SMOOTH",
"651 868 OFFCURVE",
"751 986 OFFCURVE",
"914 986 CURVE SMOOTH",
"981 986 OFFCURVE",
"1059 966 OFFCURVE",
"1145 919 CURVE",
"1196 1070 LINE",
"1098 1130 OFFCURVE",
"996 1157 OFFCURVE",
"900 1157 CURVE SMOOTH"
);
},
{
closed = 1;
nodes = (
"1257 1363 OFFCURVE",
"1547 1090 OFFCURVE",
"1547 728 CURVE SMOOTH",
"1547 371 OFFCURVE",
"1258 96 OFFCURVE",
"883 96 CURVE SMOOTH",
"505 96 OFFCURVE",
"215 372 OFFCURVE",
"215 733 CURVE SMOOTH",
"215 1091 OFFCURVE",
"503 1363 OFFCURVE",
"880 1363 CURVE SMOOTH"
);
}
);
width = 1829;
}
);
unicode = 00A9;
},
{
glyphname = dagger;
lastChange = "2013-02-25 21:23:55 -0800";
layers = (
{
layerId = "B8795E5A-CEF4-4AEB-A078-6E69DA5AAEE4";
name = Bold;
paths = (
{
closed = 1;
nodes = (
"379 1424 LINE",
"379 1064 LINE",
"72 1064 LINE",
"72 875 LINE",
"374 875 LINE",
"374 106 LINE",
"552 106 LINE",
"552 875 LINE",
"919 875 LINE",
"919 1064 LINE",
"580 1064 LINE",
"580 1424 LINE"
);
}
);
width = 1022;
}
);
unicode = 2020;
},
{
glyphname = daggerdbl;
lastChange = "2013-02-25 21:23:55 -0800";
layers = (
{
layerId = "B8795E5A-CEF4-4AEB-A078-6E69DA5AAEE4";
name = Bold;
paths = (
{
closed = 1;
nodes = (
"341 1424 LINE",
"349 1362 OFFCURVE",
"361 1282 OFFCURVE",
"372 1216 CURVE SMOOTH",
"390 1110 LINE",
"70 1110 LINE",
"70 920 LINE",
"406 920 LINE",
"406 591 LINE",
"66 591 LINE",
"66 408 LINE",
"426 408 LINE",
"386 106 LINE",
"637 106 LINE",
"600 346 LINE",
"590 408 LINE",
"908 408 LINE",
"908 591 LINE",
"561 591 LINE",
"561 920 LINE",
"917 920 LINE",
"917 1110 LINE",
"577 1110 LINE",
"577 1424 LINE"
);
}
);
width = 1022;
}
);
unicode = 2021;
},
{
glyphname = degree;
lastChange = "2013-02-25 21:23:55 -0800";
layers = (
{
layerId = "B8795E5A-CEF4-4AEB-A078-6E69DA5AAEE4";
name = Bold;
paths = (
{
closed = 1;
nodes = (
"212 1417 OFFCURVE",
"52 1283 OFFCURVE",
"52 1116 CURVE SMOOTH",
"52 948 OFFCURVE",
"214 802 OFFCURVE",
"398 802 CURVE SMOOTH",
"580 802 OFFCURVE",
"740 941 OFFCURVE",
"740 1108 CURVE SMOOTH",
"740 1279 OFFCURVE",
"579 1417 OFFCURVE",
"396 1417 CURVE SMOOTH"
);
},
{
closed = 1;
nodes = (
"472 1234 OFFCURVE",
"541 1181 OFFCURVE",
"541 1112 CURVE SMOOTH",
"541 1040 OFFCURVE",
"477 985 OFFCURVE",
"397 985 CURVE SMOOTH",
"318 985 OFFCURVE",
"248 1045 OFFCURVE",
"248 1116 CURVE SMOOTH",
"248 1187 OFFCURVE",
"318 1234 OFFCURVE",
"397 1234 CURVE SMOOTH"
);
}
);
width = 844;
}
);
unicode = 00B0;
},
{
glyphname = paragraph;
lastChange = "2013-02-25 21:23:55 -0800";
layers = (
{
layerId = "B8795E5A-CEF4-4AEB-A078-6E69DA5AAEE4";
name = Bold;
paths = (
{
closed = 1;
nodes = (
"598 1424 LINE SMOOTH",
"320 1424 OFFCURVE",
"77 1354 OFFCURVE",
"77 1094 CURVE SMOOTH",
"77 893 OFFCURVE",
"227 755 OFFCURVE",
"393 739 CURVE",
"393 -139 LINE",
"596 -139 LINE",
"596 1242 LINE",
"731 1242 LINE",
"731 -139 LINE",
"921 -139 LINE",
"921 1242 LINE",
"1004 1242 LINE",
"1004 1424 LINE"
);
}
);
width = 1214;
}
);
unicode = 00B6;
},
{
glyphname = registered;
lastChange = "2013-02-25 21:23:55 -0800";
layers = (
{
layerId = "B8795E5A-CEF4-4AEB-A078-6E69DA5AAEE4";
name = Bold;
paths = (
{
closed = 1;
nodes = (
"449 1483 OFFCURVE",
"84 1141 OFFCURVE",
"84 733 CURVE SMOOTH",
"84 321 OFFCURVE",
"443 -23 OFFCURVE",
"897 -23 CURVE SMOOTH",
"1340 -23 OFFCURVE",
"1703 319 OFFCURVE",
"1703 730 CURVE SMOOTH",
"1703 1136 OFFCURVE",
"1340 1483 OFFCURVE",
"889 1483 CURVE SMOOTH"
);
},
{
closed = 1;
nodes = (
"1269 1363 OFFCURVE",
"1559 1090 OFFCURVE",
"1559 728 CURVE SMOOTH",
"1559 371 OFFCURVE",
"1270 96 OFFCURVE",
"895 96 CURVE SMOOTH",
"517 96 OFFCURVE",
"227 372 OFFCURVE",
"227 733 CURVE SMOOTH",
"227 1091 OFFCURVE",
"515 1363 OFFCURVE",
"892 1363 CURVE SMOOTH"
);
},
{
closed = 1;
nodes = (
"538 1214 LINE",
"538 288 LINE",
"749 288 LINE",
"749 652 LINE",
"840 652 LINE",
"888 626 OFFCURVE",
"920 572 OFFCURVE",
"1055 288 CURVE",
"1316 288 LINE",
"1166 548 OFFCURVE",
"1109 636 OFFCURVE",
"1035 685 CURVE",
"1209 717 OFFCURVE",
"1266 826 OFFCURVE",
"1266 939 CURVE SMOOTH",
"1266 1116 OFFCURVE",
"1125 1214 OFFCURVE",
"837 1214 CURVE SMOOTH"
);
},
{
closed = 1;
nodes = (
"999 1045 OFFCURVE",
"1055 1034 OFFCURVE",
"1055 926 CURVE SMOOTH",
"1055 829 OFFCURVE",
"978 820 OFFCURVE",
"847 820 CURVE SMOOTH",
"749 820 LINE",
"749 1045 LINE",
"841 1045 LINE SMOOTH"
);
}
);
width = 1829;
}
);
unicode = 00AE;
},
{
glyphname = section;
lastChange = "2013-02-25 21:23:55 -0800";
layers = (
{
layerId = "B8795E5A-CEF4-4AEB-A078-6E69DA5AAEE4";
name = Bold;
paths = (
{
closed = 1;
nodes = (
"353 1483 OFFCURVE",
"181 1397 OFFCURVE",
"181 1195 CURVE SMOOTH",
"181 1089 OFFCURVE",
"223 1025 OFFCURVE",
"298 967 CURVE",
"216 912 OFFCURVE",
"149 828 OFFCURVE",
"149 734 CURVE SMOOTH",
"149 617 OFFCURVE",
"238 526 OFFCURVE",
"363 465 CURVE SMOOTH",
"581 358 OFFCURVE",
"646 334 OFFCURVE",
"646 281 CURVE SMOOTH",
"646 198 OFFCURVE",
"574 168 OFFCURVE",
"480 168 CURVE SMOOTH",
"384 168 OFFCURVE",
"264 200 OFFCURVE",
"174 237 CURVE",
"174 37 LINE",
"277 -3 OFFCURVE",
"387 -23 OFFCURVE",
"490 -23 CURVE SMOOTH",
"708 -23 OFFCURVE",
"891 71 OFFCURVE",
"891 287 CURVE SMOOTH",
"891 392 OFFCURVE",
"842 463 OFFCURVE",
"765 510 CURVE",
"844 573 OFFCURVE",
"912 649 OFFCURVE",
"912 744 CURVE SMOOTH",
"912 887 OFFCURVE",
"777 959 OFFCURVE",
"641 1030 CURVE",
"501 1096 OFFCURVE",
"427 1145 OFFCURVE",
"427 1207 CURVE SMOOTH",
"427 1280 OFFCURVE",
"495 1291 OFFCURVE",
"578 1291 CURVE SMOOTH",
"669 1291 OFFCURVE",
"777 1265 OFFCURVE",
"835 1250 CURVE",
"835 1435 LINE",
"744 1467 OFFCURVE",
"647 1483 OFFCURVE",
"556 1483 CURVE SMOOTH"
);
},
{
closed = 1;
nodes = (
"577 816 OFFCURVE",
"651 795 OFFCURVE",
"651 710 CURVE SMOOTH",
"651 660 OFFCURVE",
"628 627 OFFCURVE",
"605 601 CURVE",
"465 664 OFFCURVE",
"400 685 OFFCURVE",
"400 757 CURVE SMOOTH",
"400 814 OFFCURVE",
"424 838 OFFCURVE",
"463 870 CURVE"
);
}
);
width = 1097;
}
);
unicode = 00A7;
},
{
glyphname = euro;
lastChange = "2013-02-25 21:23:55 -0800";
layers = (
{
layerId = "B8795E5A-CEF4-4AEB-A078-6E69DA5AAEE4";
name = Bold;
paths = (
{
closed = 1;
nodes = (
"439 1421 OFFCURVE",
"247 1218 OFFCURVE",
"185 929 CURVE",
"69 929 LINE",
"39 736 LINE",
"161 736 LINE",
"161 676 LINE",
"70 676 LINE",
"44 483 LINE",
"179 483 LINE",
"228 183 OFFCURVE",
"394 -21 OFFCURVE",
"722 -21 CURVE SMOOTH",
"849 -21 OFFCURVE",
"967 13 OFFCURVE",
"1075 86 CURVE",
"1075 261 LINE",
"929 205 OFFCURVE",
"817 182 OFFCURVE",
"736 182 CURVE SMOOTH",
"558 182 OFFCURVE",
"461 304 OFFCURVE",
"430 483 CURVE",
"932 483 LINE",
"956 676 LINE",
"414 676 LINE",
"414 679 LINE SMOOTH",
"414 683 OFFCURVE",
"413 687 OFFCURVE",
"413 691 CURVE SMOOTH",
"412 706 OFFCURVE",
"411 723 OFFCURVE",
"411 736 CURVE",
"961 736 LINE",
"988 929 LINE",
"438 929 LINE",
"487 1098 OFFCURVE",
"579 1222 OFFCURVE",
"747 1222 CURVE SMOOTH",
"842 1222 OFFCURVE",
"956 1186 OFFCURVE",
"1053 1120 CURVE",
"1099 1285 LINE",
"1007 1378 OFFCURVE",
"888 1421 OFFCURVE",
"749 1421 CURVE SMOOTH"
);
}
);
width = 1190;
}
);
unicode = 20AC;
},
{
glyphname = trademark;
lastChange = "2013-02-25 21:23:55 -0800";
layers = (
{
layerId = "B8795E5A-CEF4-4AEB-A078-6E69DA5AAEE4";
name = Bold;
paths = (
{
closed = 1;
nodes = (
"1399 1424 LINE",
"1198 962 LINE",
"1005 1424 LINE",
"762 1424 LINE",
"762 643 LINE",
"939 643 LINE",
"939 1058 LINE",
"1118 643 LINE",
"1253 643 LINE",
"1450 1068 LINE",
"1450 643 LINE",
"1632 643 LINE",
"1632 1424 LINE"
);
},
{
closed = 1;
nodes = (
"53 1424 LINE",
"53 1264 LINE",
"296 1264 LINE",
"296 643 LINE",
"480 643 LINE",
"480 1264 LINE",
"742 1264 LINE",
"728 1424 LINE"
);
}
);
width = 1869;
}
);
unicode = 2122;
},
{
glyphname = lozenge;
lastChange = "2013-02-25 21:23:55 -0800";
layers = (
{
layerId = "B8795E5A-CEF4-4AEB-A078-6E69DA5AAEE4";
name = Bold;
paths = (
{
closed = 1;
nodes = (
"524 1442 LINE",
"77 700 LINE",
"518 -40 LINE",
"672 -40 LINE",
"1123 701 LINE",
"679 1442 LINE"
);
},
{
closed = 1;
nodes = (
"891 700 LINE",
"596 208 LINE",
"308 700 LINE",
"603 1179 LINE"
);
}
);
width = 1248;
}
);
unicode = 25CA;
},
{
glyphname = breveinvertedcomb;
lastChange = "2013-02-25 21:23:55 -0800";
layers = (
{
anchors = (
{
name = _top;
position = "{289, 1026}";
}
);
layerId = "B8795E5A-CEF4-4AEB-A078-6E69DA5AAEE4";
name = Bold;
paths = (
{
closed = 1;
nodes = (
"106 1427 OFFCURVE",
"-6 1337 OFFCURVE",
"-20 1142 CURVE",
"145 1142 LINE",
"154 1237 OFFCURVE",
"230 1261 OFFCURVE",
"292 1261 CURVE SMOOTH",
"354 1261 OFFCURVE",
"430 1237 OFFCURVE",
"439 1142 CURVE",
"604 1142 LINE",
"590 1337 OFFCURVE",
"478 1427 OFFCURVE",
"292 1427 CURVE SMOOTH"
);
}
);
width = 629;
}
);
unicode = 0311;
},
{
glyphname = commaaccent;
lastChange = "2013-02-25 21:23:55 -0800";
layers = (
{
anchors = (
{
name = _bot;
position = "{199, 0}";
},
{
name = _bottom;
position = "{199, 0}";
}
);
layerId = "B8795E5A-CEF4-4AEB-A078-6E69DA5AAEE4";
name = Bold;
paths = (
{
closed = 1;
nodes = (
"122 -180 LINE",
"10 -679 LINE",
"210 -679 LINE",
"388 -180 LINE"
);
}
);
width = 540;
}
);
unicode = 0326;
},
{
glyphname = dblgravecomb;
lastChange = "2013-02-25 21:23:55 -0800";
layers = (
{
anchors = (
{
name = _top;
position = "{628, 1026}";
}
);
layerId = "B8795E5A-CEF4-4AEB-A078-6E69DA5AAEE4";
name = Bold;
paths = (
{
closed = 1;
nodes = (
"52 1463 LINE",
"396 1105 LINE",
"573 1105 LINE",
"336 1463 LINE"
);
},
{
closed = 1;
nodes = (
"422 1463 LINE",
"720 1105 LINE",
"890 1105 LINE",
"690 1463 LINE"
);
}
);
width = 969;
}
);
unicode = 030F;
},
{
glyphname = dotaccentcomb;
lastChange = "2013-02-25 21:23:55 -0800";
layers = (
{
anchors = (
{
name = _top;
position = "{256, 0}";
}
);
layerId = "B8795E5A-CEF4-4AEB-A078-6E69DA5AAEE4";
name = Bold;
paths = (
{
closed = 1;
nodes = (
"139 1386 LINE",
"139 1167 LINE",
"373 1167 LINE",
"373 1386 LINE"
);
}
);
width = 524;
}
);
unicode = 0307;
},
{
glyphname = acute;
lastChange = "2013-02-25 21:23:55 -0800";
layers = (
{
anchors = (
{
name = _top;
position = "{259, 1026}";
}
);
layerId = "B8795E5A-CEF4-4AEB-A078-6E69DA5AAEE4";
name = Bold;
paths = (
{
closed = 1;
nodes = (
"304 1463 LINE",
"45 1148 LINE",
"259 1148 LINE",
"607 1463 LINE"
);
}
);
width = 607;
}
);
unicode = 00B4;
},
{
glyphname = breve;
lastChange = "2013-02-25 21:23:55 -0800";
layers = (
{
anchors = (
{
name = _top;
position = "{303, 1026}";
}
);
layerId = "B8795E5A-CEF4-4AEB-A078-6E69DA5AAEE4";
name = Bold;
paths = (
{
closed = 1;
nodes = (
"439 1427 LINE",
"430 1332 OFFCURVE",
"354 1308 OFFCURVE",
"292 1308 CURVE SMOOTH",
"230 1308 OFFCURVE",
"154 1332 OFFCURVE",
"145 1427 CURVE",
"-20 1427 LINE",
"-6 1232 OFFCURVE",
"106 1142 OFFCURVE",
"292 1142 CURVE SMOOTH",
"478 1142 OFFCURVE",
"590 1232 OFFCURVE",
"604 1427 CURVE"
);
}
);
width = 629;
}
);
unicode = 02D8;
},
{
glyphname = caron;
lastChange = "2013-02-25 21:23:55 -0800";
layers = (
{
anchors = (
{
name = _top;
position = "{334, 1026}";
}
);
layerId = "B8795E5A-CEF4-4AEB-A078-6E69DA5AAEE4";
name = Bold;
paths = (
{
closed = 1;
nodes = (
"460 1464 LINE",
"418 1408 OFFCURVE",
"373 1350 OFFCURVE",
"329 1294 CURVE",
"198 1464 LINE",
"-36 1464 LINE",
"238 1096 LINE",
"432 1096 LINE",
"704 1464 LINE"
);
}
);
width = 699;
}
);
unicode = 02C7;
},
{
glyphname = cedilla;
lastChange = "2013-02-25 21:23:55 -0800";
layers = (
{
anchors = (
{
name = _bot;
position = "{245, 0}";
},
{
name = _bottom;
position = "{246, 0}";
}
);
layerId = "B8795E5A-CEF4-4AEB-A078-6E69DA5AAEE4";
name = Bold;
paths = (
{
closed = 1;
nodes = (
"136 81 LINE",
"105 -100 LINE",
"244 -100 OFFCURVE",
"271 -135 OFFCURVE",
"271 -168 CURVE SMOOTH",
"271 -198 OFFCURVE",
"248 -227 OFFCURVE",
"202 -227 CURVE SMOOTH",
"165 -227 OFFCURVE",
"102 -219 OFFCURVE",
"23 -209 CURVE",
"9 -345 LINE",
"86 -357 OFFCURVE",
"163 -369 OFFCURVE",
"220 -369 CURVE SMOOTH",
"390 -369 OFFCURVE",
"482 -278 OFFCURVE",
"482 -189 CURVE SMOOTH",
"482 -115 OFFCURVE",
"403 -41 OFFCURVE",
"233 -23 CURVE",
"251 81 LINE"
);
}
);
width = 529;
}
);
unicode = 00B8;
},
{
glyphname = circumflex;
lastChange = "2013-02-25 21:23:55 -0800";
layers = (
{
anchors = (
{
name = _top;
position = "{268, 1026}";
}
);
layerId = "B8795E5A-CEF4-4AEB-A078-6E69DA5AAEE4";
name = Bold;
paths = (
{
closed = 1;
nodes = (
"168 1465 LINE",
"-90 1096 LINE",
"121 1096 LINE",
"198 1189 LINE",
"264 1272 LINE",
"407 1096 LINE",
"626 1096 LINE",
"363 1465 LINE"
);
}
);
width = 699;
}
);
unicode = 02C6;
},
{
glyphname = dieresis;
lastChange = "2013-02-25 21:23:55 -0800";
layers = (
{
anchors = (
{
name = _top;
position = "{375, 1026}";
}
);
layerId = "B8795E5A-CEF4-4AEB-A078-6E69DA5AAEE4";
name = Bold;
paths = (
{
closed = 1;
nodes = (
"29 1334 LINE",
"29 1114 LINE",
"265 1114 LINE",
"265 1334 LINE"
);
},
{
closed = 1;
nodes = (
"476 1334 LINE",
"476 1114 LINE",
"711 1114 LINE",
"711 1334 LINE"
);
}
);
width = 743;
}
);
unicode = 00A8;
},
{
glyphname = dotaccent;
lastChange = "2013-02-25 21:23:55 -0800";
layers = (
{
anchors = (
{
name = _top;
position = "{256, 1026}";
}
);
layerId = "B8795E5A-CEF4-4AEB-A078-6E69DA5AAEE4";
name = Bold;
paths = (
{
closed = 1;
nodes = (
"139 1386 LINE",
"139 1167 LINE",
"373 1167 LINE",
"373 1386 LINE"
);
}
);
width = 524;
}
);
unicode = 02D9;
},
{
glyphname = grave;
lastChange = "2013-02-25 21:23:55 -0800";
layers = (
{
anchors = (
{
name = _top;
position = "{344, 1026}";
}
);
layerId = "B8795E5A-CEF4-4AEB-A078-6E69DA5AAEE4";
name = Bold;
paths = (
{
closed = 1;
nodes = (
"-3 1463 LINE",
"345 1148 LINE",
"559 1148 LINE",
"300 1463 LINE"
);
}
);
width = 607;
}
);
unicode = 0060;
},
{
glyphname = hungarumlaut;
lastChange = "2013-02-25 21:23:55 -0800";
layers = (
{
anchors = (
{
name = _top;
position = "{341, 1026}";
}
);
layerId = "B8795E5A-CEF4-4AEB-A078-6E69DA5AAEE4";
name = Bold;
paths = (
{
closed = 1;
nodes = (
"622 1463 LINE",
"385 1105 LINE",
"562 1105 LINE",
"906 1463 LINE"
);
},
{
closed = 1;
nodes = (
"268 1463 LINE",
"68 1105 LINE",
"238 1105 LINE",
"536 1463 LINE"
);
}
);
width = 969;
}
);
unicode = 02DD;
},
{
glyphname = macron;
lastChange = "2013-02-25 21:23:55 -0800";
layers = (
{
anchors = (
{
name = _center;
position = "{350, 1279}";
},
{
name = _top;
position = "{352, 1026}";
}
);
layerId = "B8795E5A-CEF4-4AEB-A078-6E69DA5AAEE4";
name = Bold;
paths = (
{
closed = 1;
nodes = (
"44 1367 LINE",
"44 1196 LINE",
"661 1196 LINE",
"661 1367 LINE"
);
}
);
width = 728;
}
);
unicode = 00AF;
},
{
glyphname = ogonek;
lastChange = "2013-02-25 21:23:55 -0800";
layers = (
{
anchors = (
{
name = _bot;
position = "{309, 0}";
},
{
name = _ogonek;
position = "{472, 10}";
}
);
layerId = "B8795E5A-CEF4-4AEB-A078-6E69DA5AAEE4";
name = Bold;
paths = (
{
closed = 1;
nodes = (
"255 0 LINE",
"176 -40 OFFCURVE",
"15 -114 OFFCURVE",
"15 -255 CURVE SMOOTH",
"15 -352 OFFCURVE",
"107 -394 OFFCURVE",
"233 -394 CURVE SMOOTH",
"305 -394 OFFCURVE",
"389 -380 OFFCURVE",
"472 -355 CURVE",
"472 -216 LINE",
"444 -224 OFFCURVE",
"366 -250 OFFCURVE",
"306 -250 CURVE SMOOTH",
"263 -250 OFFCURVE",
"229 -237 OFFCURVE",
"229 -195 CURVE SMOOTH",
"229 -140 OFFCURVE",
"290 -55 OFFCURVE",
"384 0 CURVE"
);
}
);
width = 508;
}
);
unicode = 02DB;
},
{
glyphname = ring;
lastChange = "2013-02-25 21:23:55 -0800";
layers = (
{
anchors = (
{
name = _top;
position = "{187, 1026}";
}
);
layerId = "B8795E5A-CEF4-4AEB-A078-6E69DA5AAEE4";
name = Bold;
paths = (
{
closed = 1;
nodes = (
"34 1499 OFFCURVE",
"-44 1391 OFFCURVE",
"-44 1286 CURVE SMOOTH",
"-44 1182 OFFCURVE",
"31 1079 OFFCURVE",
"188 1079 CURVE SMOOTH",
"343 1079 OFFCURVE",
"418 1182 OFFCURVE",
"418 1286 CURVE SMOOTH",
"418 1391 OFFCURVE",
"340 1499 OFFCURVE",
"188 1499 CURVE SMOOTH"
);
},
{
closed = 1;
nodes = (
"220 1372 OFFCURVE",
"254 1344 OFFCURVE",
"254 1286 CURVE SMOOTH",
"254 1232 OFFCURVE",
"221 1206 OFFCURVE",
"188 1206 CURVE SMOOTH",
"153 1206 OFFCURVE",
"120 1233 OFFCURVE",
"120 1287 CURVE SMOOTH",
"120 1344 OFFCURVE",
"152 1372 OFFCURVE",
"187 1372 CURVE SMOOTH"
);
}
);
width = 605;
}
);
unicode = 02DA;
},
{
glyphname = tilde;
lastChange = "2013-02-25 21:23:55 -0800";
layers = (
{
anchors = (
{
name = _top;
position = "{234, 1026}";
}
);
layerId = "B8795E5A-CEF4-4AEB-A078-6E69DA5AAEE4";
name = Bold;
paths = (
{
closed = 1;
nodes = (
"427 1408 LINE",
"419 1343 OFFCURVE",
"414 1303 OFFCURVE",
"373 1303 CURVE SMOOTH",
"314 1303 OFFCURVE",
"203 1408 OFFCURVE",
"88 1408 CURVE SMOOTH",
"-38 1408 OFFCURVE",
"-103 1283 OFFCURVE",
"-113 1127 CURVE",
"39 1127 LINE",
"46 1201 OFFCURVE",
"69 1228 OFFCURVE",
"98 1228 CURVE SMOOTH",
"161 1228 OFFCURVE",
"290 1122 OFFCURVE",
"385 1122 CURVE SMOOTH",
"517 1122 OFFCURVE",
"568 1260 OFFCURVE",
"582 1408 CURVE"
);
}
);
width = 663;
}
);
unicode = 02DC;
},
